<svg width="88" height="26" viewBox="0 0 88 26" fill="none" xmlns="http://www.w3.org/2000/svg">
<g clip-path="url(#clip0_298_9084)">
<path d="M13.2276 11.039L17.9995 6.26715L22.774 11.0415L25.5507 8.26481L17.9995 0.713379L10.4509 8.26228L13.2276 11.039Z" fill="#F0B90B"/>
<path d="M11.2667 12.9992L8.49012 10.2226L5.71338 12.9994L8.48998 15.776L11.2667 12.9992Z" fill="#F0B90B"/>
<path d="M17.9996 19.7321L13.2277 14.9603L10.4469 17.7333L17.9996 25.2859L25.5507 17.7347L25.5521 17.7331L22.7739 14.958L17.9996 19.7321Z" fill="#F0B90B"/>
<path d="M27.5092 15.7773L30.2859 13.0005L27.5093 10.2239L24.7326 13.0006L27.5092 15.7773Z" fill="#F0B90B"/>
<path d="M20.8172 12.9982H20.816L20.8185 12.9996L20.8172 13.0011L17.9996 15.8188L15.1845 13.0037L15.1806 12.9996L17.9996 10.1806L20.8172 12.9982Z" fill="#F0B90B"/>
</g>
<path d="M36.7168 17H39.541C40.1426 17 40.6582 16.9043 41.0879 16.7129C41.5176 16.5215 41.8477 16.248 42.0781 15.8926C42.3125 15.5332 42.4297 15.1074 42.4297 14.6152V14.6035C42.4297 14.2363 42.3496 13.9082 42.1895 13.6191C42.0293 13.3262 41.8066 13.0879 41.5215 12.9043C41.2363 12.7207 40.9023 12.6094 40.5195 12.5703V12.4707C40.8008 12.4238 41.0527 12.3125 41.2754 12.1367C41.498 11.9609 41.6758 11.7461 41.8086 11.4922C41.9414 11.2344 42.0078 10.957 42.0078 10.6602V10.6484C42.0078 10.2188 41.9062 9.84766 41.7031 9.53516C41.5 9.21875 41.207 8.97461 40.8242 8.80273C40.4453 8.63086 39.9922 8.54492 39.4648 8.54492H36.7168V9.61719H39.1543C39.6426 9.61719 40.0215 9.72852 40.291 9.95117C40.5605 10.1699 40.6953 10.4785 40.6953 10.877V10.8887C40.6953 11.2988 40.5469 11.6113 40.25 11.8262C39.9531 12.0371 39.5137 12.1426 38.9316 12.1426H36.7168V13.1445H39.1953C39.6094 13.1445 39.9551 13.1973 40.2324 13.3027C40.5137 13.4043 40.7246 13.5566 40.8652 13.7598C41.0059 13.9629 41.0762 14.2168 41.0762 14.5215V14.5332C41.0762 14.9863 40.9238 15.332 40.6191 15.5703C40.3145 15.8086 39.8652 15.9277 39.2715 15.9277H36.7168V17ZM36.0605 17H37.373V8.54492H36.0605V17ZM43.9824 17H45.2598V10.6367H43.9824V17ZM44.627 9.5C44.8457 9.5 45.0332 9.42188 45.1895 9.26562C45.3457 9.10938 45.4238 8.92188 45.4238 8.70312C45.4238 8.48438 45.3457 8.29883 45.1895 8.14648C45.0332 7.99023 44.8457 7.91211 44.627 7.91211C44.4082 7.91211 44.2207 7.99023 44.0645 8.14648C43.9082 8.29883 43.8301 8.48438 43.8301 8.70312C43.8301 8.92188 43.9082 9.10938 44.0645 9.26562C44.2207 9.42188 44.4082 9.5 44.627 9.5ZM47.1055 17H48.377V13.2676C48.377 12.9238 48.4375 12.6289 48.5586 12.3828C48.6836 12.1328 48.8594 11.9414 49.0859 11.8086C49.3125 11.6719 49.5801 11.6035 49.8887 11.6035C50.3574 11.6035 50.7012 11.7344 50.9199 11.9961C51.1426 12.2539 51.2539 12.6484 51.2539 13.1797V17H52.5312V12.8809C52.5312 12.123 52.3418 11.5391 51.9629 11.1289C51.584 10.7188 51.0371 10.5137 50.3223 10.5137C49.8574 10.5137 49.4727 10.6094 49.168 10.8008C48.8633 10.9922 48.6328 11.2578 48.4766 11.5977H48.377V10.6367H47.1055V17ZM56.0469 17.1055C56.3281 17.1055 56.5879 17.0664 56.8262 16.9883C57.0645 16.9102 57.2773 16.7969 57.4648 16.6484C57.6523 16.4961 57.8086 16.3125 57.9336 16.0977H58.0273V17H59.293V12.6465C59.293 12.2012 59.1953 11.8203 59 11.5039C58.8086 11.1836 58.5254 10.9395 58.1504 10.7715C57.7793 10.5996 57.3262 10.5137 56.791 10.5137C56.3105 10.5137 55.8828 10.5859 55.5078 10.7305C55.1367 10.875 54.8359 11.0781 54.6055 11.3398C54.3789 11.5977 54.2402 11.9023 54.1895 12.2539L54.1836 12.2949H55.4082L55.4199 12.2773C55.4941 12.0508 55.6426 11.875 55.8652 11.75C56.0918 11.625 56.3828 11.5625 56.7383 11.5625C57.1641 11.5625 57.4844 11.6562 57.6992 11.8438C57.918 12.0273 58.0273 12.2949 58.0273 12.6465V14.6504C58.0273 14.9238 57.957 15.1699 57.8164 15.3887C57.6758 15.6035 57.4805 15.7754 57.2305 15.9043C56.9844 16.0293 56.7031 16.0918 56.3867 16.0918C56.0469 16.0918 55.7656 16.0098 55.543 15.8457C55.3203 15.6777 55.209 15.4492 55.209 15.1602V15.1484C55.209 14.8633 55.3125 14.6426 55.5195 14.4863C55.7266 14.3262 56.0488 14.2324 56.4863 14.2051L58.6602 14.0645V13.168L56.3105 13.3086C55.5527 13.3555 54.9668 13.541 54.5527 13.8652C54.1426 14.1855 53.9375 14.6309 53.9375 15.2012V15.2129C53.9375 15.5957 54.0293 15.9297 54.2129 16.2148C54.3965 16.5 54.6465 16.7207 54.9629 16.877C55.2832 17.0293 55.6445 17.1055 56.0469 17.1055ZM61.0859 17H62.3574V13.2676C62.3574 12.9238 62.418 12.6289 62.5391 12.3828C62.6641 12.1328 62.8398 11.9414 63.0664 11.8086C63.293 11.6719 63.5605 11.6035 63.8691 11.6035C64.3379 11.6035 64.6816 11.7344 64.9004 11.9961C65.123 12.2539 65.2344 12.6484 65.2344 13.1797V17H66.5117V12.8809C66.5117 12.123 66.3223 11.5391 65.9434 11.1289C65.5645 10.7188 65.0176 10.5137 64.3027 10.5137C63.8379 10.5137 63.4531 10.6094 63.1484 10.8008C62.8438 10.9922 62.6133 11.2578 62.457 11.5977H62.3574V10.6367H61.0859V17ZM70.959 17.123C71.4863 17.123 71.9375 17.0352 72.3125 16.8594C72.6914 16.6797 72.9941 16.4336 73.2207 16.1211C73.4473 15.8086 73.5977 15.4453 73.6719 15.0312L73.6836 14.9785L72.4648 14.9844L72.4531 15.0137C72.3516 15.3574 72.1758 15.6172 71.9258 15.793C71.6797 15.9688 71.3574 16.0566 70.959 16.0566C70.6113 16.0566 70.3105 15.9668 70.0566 15.7871C69.8027 15.6035 69.6074 15.3438 69.4707 15.0078C69.334 14.6719 69.2656 14.2695 69.2656 13.8008V13.7891C69.2656 13.332 69.332 12.9375 69.4648 12.6055C69.6016 12.2734 69.7969 12.0195 70.0508 11.8438C70.3047 11.6641 70.6074 11.5742 70.959 11.5742C71.3809 11.5742 71.7188 11.6797 71.9727 11.8906C72.2266 12.0977 72.3887 12.3574 72.459 12.6699L72.4648 12.6816H73.6895L73.6836 12.6523C73.625 12.2422 73.4805 11.877 73.25 11.5566C73.0234 11.2324 72.7168 10.9785 72.3301 10.7949C71.9473 10.6074 71.4883 10.5137 70.9531 10.5137C70.3359 10.5137 69.8027 10.6465 69.3535 10.9121C68.9082 11.1777 68.5645 11.5547 68.3223 12.043C68.084 12.5312 67.9648 13.1133 67.9648 13.7891V13.8008C67.9648 14.4883 68.0859 15.0801 68.3281 15.5762C68.5703 16.0723 68.9141 16.4551 69.3594 16.7246C69.8086 16.9902 70.3418 17.123 70.959 17.123ZM77.7969 17.123C78.207 17.123 78.5684 17.0703 78.8809 16.9648C79.1973 16.8594 79.4668 16.7207 79.6895 16.5488C79.916 16.377 80.0977 16.1875 80.2344 15.9805C80.3711 15.7695 80.4668 15.5586 80.5215 15.3477L80.5332 15.2949H79.3027L79.2793 15.3418C79.2324 15.4512 79.1445 15.5625 79.0156 15.6758C78.8906 15.7891 78.7285 15.8848 78.5293 15.9629C78.334 16.0371 78.0996 16.0742 77.8262 16.0742C77.4707 16.0742 77.1621 15.9961 76.9004 15.8398C76.6426 15.6836 76.4434 15.457 76.3027 15.1602C76.1621 14.8633 76.0918 14.5059 76.0918 14.0879V13.5781C76.0918 13.1406 76.1621 12.7715 76.3027 12.4707C76.4473 12.1699 76.6426 11.9434 76.8887 11.791C77.1387 11.6348 77.4219 11.5566 77.7383 11.5566C78.0547 11.5566 78.334 11.6309 78.5762 11.7793C78.8184 11.9277 79.0078 12.1523 79.1445 12.4531C79.2852 12.75 79.3555 13.125 79.3555 13.5781V14.0879L79.9648 13.2441H75.4531V14.1523H80.5977V13.707C80.5977 13.0664 80.4824 12.5078 80.252 12.0312C80.0215 11.5508 79.6914 11.1777 79.2617 10.9121C78.8359 10.6465 78.3262 10.5137 77.7324 10.5137C77.1426 10.5137 76.627 10.6523 76.1855 10.9297C75.748 11.207 75.4082 11.5938 75.166 12.0898C74.9277 12.5859 74.8086 13.166 74.8086 13.8301V13.8359C74.8086 14.5078 74.9277 15.0898 75.166 15.582C75.4082 16.0742 75.752 16.4551 76.1973 16.7246C76.6426 16.9902 77.1758 17.123 77.7969 17.123Z" fill="#111432"/>
<defs>
<clipPath id="clip0_298_9084">
<rect width="24" height="24" fill="white" transform="translate(6 1)"/>
</clipPath>
</defs>
</svg>
