<svg width="89" height="25" viewBox="0 0 89 25" fill="none" xmlns="http://www.w3.org/2000/svg">
<g clip-path="url(#clip0_248_7273)">
<path d="M21.9998 9.94676C21.9733 9.92982 21.937 9.91626 21.9139 9.96032C21.8445 10.7975 21.0122 12.587 19.9552 14.2341C16.3715 19.8128 18.4127 22.5039 19.5621 23.9511C20.2294 24.7882 19.5621 23.9511 21.2269 23.0936C23.2846 21.8125 24.619 19.5959 24.8172 17.1353C25.1442 13.1699 22.8255 10.6721 21.9998 9.94676Z" fill="#2483FF"/>
<path d="M20.0909 7.67942C20.0909 4.23593 18.4559 1.27033 17.2107 0.307784C17.2107 0.307784 17.1149 0.253555 17.1248 0.392515C17.0224 7.04563 13.7095 8.84871 11.8895 11.2754C7.68815 16.8813 11.5923 23.026 15.5757 24.1614C17.7953 24.7986 15.0604 23.0362 14.707 19.3181C14.2743 14.8308 20.0909 11.4008 20.0909 7.67942Z" fill="#212121"/>
</g>
<path d="M33.5605 17H34.873V13.2559H39.209V17H40.5273V8.54492H39.209V12.1191H34.873V8.54492H33.5605V17ZM44.6289 17.123C45.0938 17.123 45.4844 17.0273 45.8008 16.8359C46.1172 16.6445 46.3516 16.3789 46.5039 16.0391H46.5977V17H47.875V10.6367H46.5977V14.3691C46.5977 14.709 46.5391 15.0039 46.4219 15.2539C46.3047 15.5 46.1289 15.6914 45.8945 15.8281C45.6641 15.9609 45.3809 16.0273 45.0449 16.0273C44.5762 16.0273 44.2383 15.8965 44.0312 15.6348C43.8242 15.373 43.7207 14.9805 43.7207 14.457V10.6367H42.4492V14.7559C42.4492 15.2559 42.5293 15.6836 42.6895 16.0391C42.8535 16.3906 43.0977 16.6602 43.4219 16.8477C43.75 17.0312 44.1523 17.123 44.6289 17.123ZM52.3984 17.123C53.0234 17.123 53.5586 16.9902 54.0039 16.7246C54.4531 16.459 54.7988 16.0801 55.041 15.5879C55.2871 15.0918 55.4102 14.5039 55.4102 13.8242V13.8125C55.4102 13.1289 55.2871 12.541 55.041 12.0488C54.7988 11.5527 54.4531 11.1738 54.0039 10.9121C53.5547 10.6465 53.0195 10.5137 52.3984 10.5137C51.7812 10.5137 51.2461 10.6465 50.793 10.9121C50.3438 11.1777 49.9961 11.5566 49.75 12.0488C49.5078 12.541 49.3867 13.1289 49.3867 13.8125V13.8242C49.3867 14.5039 49.5078 15.0918 49.75 15.5879C49.9922 16.0801 50.3379 16.459 50.7871 16.7246C51.2402 16.9902 51.7773 17.123 52.3984 17.123ZM52.3984 16.0566C52.0352 16.0566 51.7266 15.9688 51.4727 15.793C51.2188 15.6133 51.0234 15.3574 50.8867 15.0254C50.7539 14.6934 50.6875 14.293 50.6875 13.8242V13.8125C50.6875 13.3398 50.7539 12.9375 50.8867 12.6055C51.0234 12.2734 51.2188 12.0195 51.4727 11.8438C51.7266 11.6641 52.0352 11.5742 52.3984 11.5742C52.7617 11.5742 53.0703 11.6641 53.3242 11.8438C53.5781 12.0195 53.7715 12.2734 53.9043 12.6055C54.0371 12.9375 54.1035 13.3398 54.1035 13.8125V13.8242C54.1035 14.293 54.0371 14.6934 53.9043 15.0254C53.7715 15.3574 53.5781 15.6133 53.3242 15.793C53.0703 15.9688 52.7617 16.0566 52.3984 16.0566ZM60.3086 17.1055C60.8438 17.1055 61.3086 16.9727 61.7031 16.707C62.0977 16.4375 62.4023 16.0566 62.6172 15.5645C62.8359 15.0723 62.9453 14.4922 62.9453 13.8242V13.8125C62.9453 13.1406 62.8379 12.5586 62.623 12.0664C62.4082 11.5742 62.1035 11.1953 61.709 10.9297C61.3145 10.6602 60.8477 10.5254 60.3086 10.5254C59.8711 10.5254 59.4766 10.627 59.125 10.8301C58.7773 11.0293 58.5195 11.3008 58.3516 11.6445H58.252V8.14062H56.9805V17H58.252V15.998H58.3516C58.5391 16.3457 58.8008 16.6172 59.1367 16.8125C59.4727 17.0078 59.8633 17.1055 60.3086 17.1055ZM59.9453 16.0156C59.5938 16.0156 59.2891 15.9277 59.0312 15.752C58.7734 15.5762 58.5762 15.3242 58.4395 14.9961C58.3027 14.6641 58.2344 14.2734 58.2344 13.8242V13.8125C58.2344 13.3594 58.3027 12.9688 58.4395 12.6406C58.5762 12.3125 58.7734 12.0605 59.0312 11.8848C59.2891 11.7051 59.5938 11.6152 59.9453 11.6152C60.3008 11.6152 60.6055 11.7051 60.8594 11.8848C61.1133 12.0605 61.3066 12.3125 61.4395 12.6406C61.5762 12.9648 61.6445 13.3555 61.6445 13.8125V13.8242C61.6445 14.2773 61.5762 14.668 61.4395 14.9961C61.3066 15.3242 61.1133 15.5762 60.8594 15.752C60.6055 15.9277 60.3008 16.0156 59.9453 16.0156ZM64.4746 17H65.752V10.6367H64.4746V17ZM65.1191 9.5C65.3379 9.5 65.5254 9.42188 65.6816 9.26562C65.8379 9.10938 65.916 8.92188 65.916 8.70312C65.916 8.48438 65.8379 8.29883 65.6816 8.14648C65.5254 7.99023 65.3379 7.91211 65.1191 7.91211C64.9004 7.91211 64.7129 7.99023 64.5566 8.14648C64.4004 8.29883 64.3223 8.48438 64.3223 8.70312C64.3223 8.92188 64.4004 9.10938 64.5566 9.26562C64.7129 9.42188 64.9004 9.5 65.1191 9.5Z" fill="#111432"/>
<defs>
<clipPath id="clip0_248_7273">
<rect width="24" height="24" fill="white" transform="translate(6.5 0.297363)"/>
</clipPath>
</defs>
</svg>
