<svg width="70" height="26" viewBox="0 0 70 26" fill="none" xmlns="http://www.w3.org/2000/svg">
<g clip-path="url(#clip0_298_9102)">
<path fill-rule="evenodd" clip-rule="evenodd" d="M8.6633 13.0027L15.8497 20.1122L20.3858 15.6253C21.1969 14.9029 22.4378 14.935 23.2096 15.6984C23.9814 16.4618 24.0139 17.6893 23.2836 18.4916L17.2975 24.4138C16.4934 25.196 15.2038 25.196 14.3997 24.4138L5.76332 15.8689V20.9478C5.76332 22.0687 4.84469 22.9774 3.7115 22.9774C2.5783 22.9774 1.65967 22.0687 1.65967 20.9478V5.05089C1.65967 3.93 2.5783 3.02133 3.7115 3.02133C4.84469 3.02133 5.76332 3.93 5.76332 5.05089V10.1297L14.3986 1.58709C15.2024 0.804305 16.4925 0.804305 17.2964 1.58709L23.2869 7.50819C24.0172 8.3105 23.9847 9.53794 23.213 10.3013C22.4412 11.0648 21.2003 11.0969 20.3891 10.3745L15.8531 5.88763L8.6633 13.0027ZM15.8531 10.9709C15.0222 10.9704 14.2728 11.4652 13.9546 12.2244C13.6363 12.9835 13.8117 13.8576 14.3991 14.4389C14.9865 15.0202 15.8701 15.1943 16.6377 14.8799C17.4054 14.5654 17.906 13.8245 17.906 13.0027C17.9063 12.4638 17.6902 11.9469 17.3052 11.5657C16.9202 11.1844 16.3978 10.9701 15.8531 10.9698V10.9709Z" fill="#24AE8F"/>
</g>
<path d="M31.7617 14.3105L32.9395 12.9746L33.6367 12.3477L37.0234 8.54492H35.4648L31.9727 12.541H31.6973L31.7617 14.3105ZM30.5605 17H31.873V8.54492H30.5605V17ZM35.6582 17H37.2988L33.6484 12.0723L32.7227 12.9629L35.6582 17ZM40.2578 17.123C40.7227 17.123 41.1133 17.0273 41.4297 16.8359C41.7461 16.6445 41.9805 16.3789 42.1328 16.0391H42.2266V17H43.5039V10.6367H42.2266V14.3691C42.2266 14.709 42.168 15.0039 42.0508 15.2539C41.9336 15.5 41.7578 15.6914 41.5234 15.8281C41.293 15.9609 41.0098 16.0273 40.6738 16.0273C40.2051 16.0273 39.8672 15.8965 39.6602 15.6348C39.4531 15.373 39.3496 14.9805 39.3496 14.457V10.6367H38.0781V14.7559C38.0781 15.2559 38.1582 15.6836 38.3184 16.0391C38.4824 16.3906 38.7266 16.6602 39.0508 16.8477C39.3789 17.0312 39.7812 17.123 40.2578 17.123ZM48.0098 17.123C48.5371 17.123 48.9883 17.0352 49.3633 16.8594C49.7422 16.6797 50.0449 16.4336 50.2715 16.1211C50.498 15.8086 50.6484 15.4453 50.7227 15.0312L50.7344 14.9785L49.5156 14.9844L49.5039 15.0137C49.4023 15.3574 49.2266 15.6172 48.9766 15.793C48.7305 15.9688 48.4082 16.0566 48.0098 16.0566C47.6621 16.0566 47.3613 15.9668 47.1074 15.7871C46.8535 15.6035 46.6582 15.3438 46.5215 15.0078C46.3848 14.6719 46.3164 14.2695 46.3164 13.8008V13.7891C46.3164 13.332 46.3828 12.9375 46.5156 12.6055C46.6523 12.2734 46.8477 12.0195 47.1016 11.8438C47.3555 11.6641 47.6582 11.5742 48.0098 11.5742C48.4316 11.5742 48.7695 11.6797 49.0234 11.8906C49.2773 12.0977 49.4395 12.3574 49.5098 12.6699L49.5156 12.6816H50.7402L50.7344 12.6523C50.6758 12.2422 50.5312 11.877 50.3008 11.5566C50.0742 11.2324 49.7676 10.9785 49.3809 10.7949C48.998 10.6074 48.5391 10.5137 48.0039 10.5137C47.3867 10.5137 46.8535 10.6465 46.4043 10.9121C45.959 11.1777 45.6152 11.5547 45.373 12.043C45.1348 12.5312 45.0156 13.1133 45.0156 13.7891V13.8008C45.0156 14.4883 45.1367 15.0801 45.3789 15.5762C45.6211 16.0723 45.9648 16.4551 46.4102 16.7246C46.8594 16.9902 47.3926 17.123 48.0098 17.123ZM54.8711 17.123C55.4961 17.123 56.0312 16.9902 56.4766 16.7246C56.9258 16.459 57.2715 16.0801 57.5137 15.5879C57.7598 15.0918 57.8828 14.5039 57.8828 13.8242V13.8125C57.8828 13.1289 57.7598 12.541 57.5137 12.0488C57.2715 11.5527 56.9258 11.1738 56.4766 10.9121C56.0273 10.6465 55.4922 10.5137 54.8711 10.5137C54.2539 10.5137 53.7188 10.6465 53.2656 10.9121C52.8164 11.1777 52.4688 11.5566 52.2227 12.0488C51.9805 12.541 51.8594 13.1289 51.8594 13.8125V13.8242C51.8594 14.5039 51.9805 15.0918 52.2227 15.5879C52.4648 16.0801 52.8105 16.459 53.2598 16.7246C53.7129 16.9902 54.25 17.123 54.8711 17.123ZM54.8711 16.0566C54.5078 16.0566 54.1992 15.9688 53.9453 15.793C53.6914 15.6133 53.4961 15.3574 53.3594 15.0254C53.2266 14.6934 53.1602 14.293 53.1602 13.8242V13.8125C53.1602 13.3398 53.2266 12.9375 53.3594 12.6055C53.4961 12.2734 53.6914 12.0195 53.9453 11.8438C54.1992 11.6641 54.5078 11.5742 54.8711 11.5742C55.2344 11.5742 55.543 11.6641 55.7969 11.8438C56.0508 12.0195 56.2441 12.2734 56.377 12.6055C56.5098 12.9375 56.5762 13.3398 56.5762 13.8125V13.8242C56.5762 14.293 56.5098 14.6934 56.377 15.0254C56.2441 15.3574 56.0508 15.6133 55.7969 15.793C55.543 15.9688 55.2344 16.0566 54.8711 16.0566ZM59.4121 17H60.6895V10.6367H59.4121V17ZM60.0566 9.5C60.2754 9.5 60.4629 9.42188 60.6191 9.26562C60.7754 9.10938 60.8535 8.92188 60.8535 8.70312C60.8535 8.48438 60.7754 8.29883 60.6191 8.14648C60.4629 7.99023 60.2754 7.91211 60.0566 7.91211C59.8379 7.91211 59.6504 7.99023 59.4941 8.14648C59.3379 8.29883 59.2598 8.48438 59.2598 8.70312C59.2598 8.92188 59.3379 9.10938 59.4941 9.26562C59.6504 9.42188 59.8379 9.5 60.0566 9.5ZM62.5352 17H63.8066V13.2676C63.8066 12.9238 63.8672 12.6289 63.9883 12.3828C64.1133 12.1328 64.2891 11.9414 64.5156 11.8086C64.7422 11.6719 65.0098 11.6035 65.3184 11.6035C65.7871 11.6035 66.1309 11.7344 66.3496 11.9961C66.5723 12.2539 66.6836 12.6484 66.6836 13.1797V17H67.9609V12.8809C67.9609 12.123 67.7715 11.5391 67.3926 11.1289C67.0137 10.7188 66.4668 10.5137 65.752 10.5137C65.2871 10.5137 64.9023 10.6094 64.5977 10.8008C64.293 10.9922 64.0625 11.2578 63.9062 11.5977H63.8066V10.6367H62.5352V17Z" fill="#111432"/>
<defs>
<clipPath id="clip0_298_9102">
<rect width="24" height="24" fill="white" transform="translate(0.5 1)"/>
</clipPath>
</defs>
</svg>
