<svg width="88" height="26" viewBox="0 0 88 26" fill="none" xmlns="http://www.w3.org/2000/svg">
<g clip-path="url(#clip0_248_7278)">
<path fill-rule="evenodd" clip-rule="evenodd" d="M18.5731 7H6.28572C6.20994 7 6.13726 7.03008 6.0837 7.0837C6.03008 7.13726 6 7.20994 6 7.28577V19.5732C6 19.649 6.03008 19.7216 6.0837 19.7752C6.13726 19.8288 6.20994 19.8589 6.28572 19.8589H18.5731C18.649 19.8589 18.7217 19.8288 18.7752 19.7752C18.8288 19.7216 18.8589 19.649 18.8589 19.5732V7.28577C18.8589 7.20994 18.8288 7.13726 18.7752 7.0837C18.7217 7.03008 18.649 7 18.5731 7ZM14.5726 15.2869C14.5726 15.3626 14.5425 15.4353 14.4889 15.4889C14.4353 15.5425 14.3627 15.5726 14.2869 15.5726H10.572C10.4963 15.5726 10.4236 15.5425 10.37 15.4889C10.3164 15.4353 10.2863 15.3626 10.2863 15.2869V11.572C10.2863 11.4963 10.3164 11.4236 10.37 11.37C10.4236 11.3164 10.4963 11.2863 10.572 11.2863H14.2869C14.3627 11.2863 14.4353 11.3164 14.4889 11.37C14.5425 11.4236 14.5726 11.4963 14.5726 11.572V15.2869Z" fill="#111432"/>
<path d="M44.2982 11.2868H40.5834C40.4256 11.2868 40.2976 11.4147 40.2976 11.5725V15.2874C40.2976 15.4452 40.4256 15.5731 40.5834 15.5731H44.2982C44.456 15.5731 44.5839 15.4452 44.5839 15.2874V11.5725C44.5839 11.4147 44.456 11.2868 44.2982 11.2868Z" fill="#111432"/>
<path d="M36.2953 7.00037H40.0101C40.1679 7.00037 40.2958 7.12827 40.2958 7.28614V11.0009C40.2958 11.1587 40.1679 11.2867 40.0101 11.2867H36.2953C36.1375 11.2867 36.0095 11.1587 36.0095 11.0009V7.28614C36.0095 7.12827 36.1375 7.00037 36.2953 7.00037Z" fill="#111432"/>
<path d="M48.5828 7.00037H44.8679C44.7101 7.00037 44.5822 7.12827 44.5822 7.28614V11.0009C44.5822 11.1587 44.7101 11.2867 44.8679 11.2867H48.5828C48.7406 11.2867 48.8685 11.1587 48.8685 11.0009V7.28614C48.8685 7.12827 48.7406 7.00037 48.5828 7.00037Z" fill="#111432"/>
<path d="M36.2953 15.5729H40.0101C40.1679 15.5729 40.2958 15.7008 40.2958 15.8586V19.5734C40.2958 19.7312 40.1679 19.8592 40.0101 19.8592H36.2953C36.1375 19.8592 36.0095 19.7312 36.0095 19.5734V15.8586C36.0095 15.7008 36.1375 15.5729 36.2953 15.5729Z" fill="#111432"/>
<path d="M48.5828 15.5729H44.8679C44.7101 15.5729 44.5822 15.7008 44.5822 15.8586V19.5734C44.5822 19.7312 44.7101 19.8592 44.8679 19.8592H48.5828C48.7406 19.8592 48.8685 19.7312 48.8685 19.5734V15.8586C48.8685 15.7008 48.7406 15.5729 48.5828 15.5729Z" fill="#111432"/>
<path d="M29.8605 7.00037H33.5753C33.7331 7.00037 33.861 7.12827 33.861 7.28614V11.0009C33.861 11.1587 33.7331 11.2867 33.5753 11.2867H29.8605C29.7027 11.2867 29.5747 11.1587 29.5747 11.0009V7.28614C29.5747 7.12827 29.7027 7.00037 29.8605 7.00037Z" fill="#111432"/>
<path d="M33.5753 15.5729H29.8605C29.7027 15.5729 29.5747 15.7008 29.5747 15.8586V19.5734C29.5747 19.7312 29.7027 19.8592 29.8605 19.8592H33.5753C33.7331 19.8592 33.861 19.7312 33.861 19.5734V15.8586C33.861 15.7008 33.7331 15.5729 33.5753 15.5729Z" fill="#111432"/>
<path d="M29.491 11.3668C29.5446 11.4204 29.5747 11.493 29.5747 11.5688V15.2837C29.5747 15.3594 29.5446 15.4321 29.491 15.4857C29.4374 15.5393 29.3647 15.5694 29.2889 15.5694H25.2884V19.5668C25.2884 19.6425 25.2583 19.7152 25.2047 19.7688C25.1511 19.8224 25.0784 19.8525 25.0026 19.8525H21.2878C21.212 19.8525 21.1393 19.8224 21.0858 19.7688C21.0322 19.7152 21.0021 19.6425 21.0021 19.5668V7.28577C21.0021 7.20994 21.0322 7.13726 21.0858 7.0837C21.1393 7.03008 21.212 7 21.2878 7H25.0026C25.0784 7 25.1511 7.03008 25.2047 7.0837C25.2583 7.13726 25.2884 7.20994 25.2884 7.28577V11.2831H29.2889C29.3647 11.2831 29.4374 11.3132 29.491 11.3668Z" fill="#111432"/>
</g>
<path d="M57.6641 17.2051C58.4766 17.2051 59.1777 17.0234 59.7676 16.6602C60.3613 16.2969 60.8164 15.7852 61.1328 15.125C61.4492 14.4609 61.6074 13.6777 61.6074 12.7754V12.7637C61.6074 11.8574 61.4473 11.0742 61.127 10.4141C60.8105 9.75 60.3574 9.23828 59.7676 8.87891C59.1777 8.51953 58.4766 8.33984 57.6641 8.33984C56.8555 8.33984 56.1543 8.51953 55.5605 8.87891C54.9707 9.23828 54.5156 9.74805 54.1953 10.4082C53.875 11.0684 53.7148 11.8535 53.7148 12.7637V12.7754C53.7148 13.6777 53.873 14.4609 54.1895 15.125C54.5059 15.7891 54.959 16.3027 55.5488 16.666C56.1387 17.0254 56.8438 17.2051 57.6641 17.2051ZM57.6641 16.0391C57.1211 16.0391 56.6543 15.9043 56.2637 15.6348C55.877 15.3652 55.5781 14.9863 55.3672 14.498C55.1602 14.0059 55.0566 13.4316 55.0566 12.7754V12.7637C55.0566 12.0996 55.1641 11.5234 55.3789 11.0352C55.5938 10.5469 55.8945 10.1699 56.2812 9.9043C56.6719 9.63867 57.1328 9.50586 57.6641 9.50586C58.1953 9.50586 58.6562 9.63867 59.0469 9.9043C59.4375 10.1699 59.7383 10.5469 59.9492 11.0352C60.1602 11.5234 60.2656 12.0996 60.2656 12.7637V12.7754C60.2656 13.4316 60.1602 14.0059 59.9492 14.498C59.7383 14.9863 59.4375 15.3652 59.0469 15.6348C58.6562 15.9043 58.1953 16.0391 57.6641 16.0391ZM64.5898 14.3105L65.7676 12.9746L66.4648 12.3477L69.8516 8.54492H68.293L64.8008 12.541H64.5254L64.5898 14.3105ZM63.3887 17H64.7012V8.54492H63.3887V17ZM68.4863 17H70.127L66.4766 12.0723L65.5508 12.9629L68.4863 17ZM70.9766 17H72.4355L74.8672 13.2969L73.9941 13.7773H74.6035L76.707 17H78.248L75.1191 12.3242L75.4355 13.3672V12.7695L78.3008 8.54492H76.8125L74.4102 12.3066L75.2715 11.8203H74.668L72.5762 8.54492H71.0059L73.7891 12.7285V13.3203L74.0996 12.2773L70.9766 17Z" fill="#111432"/>
<defs>
<clipPath id="clip0_248_7278">
<rect width="42" height="26" fill="white" transform="translate(6)"/>
</clipPath>
</defs>
</svg>
