<svg width="88" height="26" viewBox="0 0 88 26" fill="none" xmlns="http://www.w3.org/2000/svg">
<g clip-path="url(#clip0_260_8858)">
<path d="M23.1404 13.098H21.4431L22.4152 10.1373H24.1129C24.5367 10.1373 24.7576 10.5164 24.6042 10.9833L24.1872 12.252C24.0348 12.7184 23.5651 13.098 23.1404 13.098Z" fill="#023F97"/>
<path fill-rule="evenodd" clip-rule="evenodd" d="M30.0005 13.0002C30.0005 19.6278 24.6278 25.0005 18.0002 25.0005C11.3727 25.0005 6 19.6278 6 13.0002C6 6.37268 11.3727 1 18.0002 1C24.6278 1 30.0005 6.37268 30.0005 13.0002ZM19.4084 10.7973L17.2678 17.3012L20.0632 17.2997L20.971 14.534H24.17C24.992 14.5293 25.9152 13.9943 26.5215 13.1699C26.7132 12.9109 26.867 12.6259 26.9783 12.3234L26.9956 12.2784C27.0018 12.2616 27.0075 12.2463 27.0128 12.2304L27.4164 11.0015C27.832 9.73128 27.2304 8.69834 26.0743 8.69834H19.7027L20.4394 11.1328L19.4084 10.7973ZM9.70366 17.281C9.77546 17.2916 9.84779 17.2982 9.92032 17.3007L15.5921 17.3012L17.7337 10.7987L16.4726 11.1342L18.8083 8.69978H15.6208L13.2684 15.8632H11.875C11.7842 15.8656 11.6944 15.844 11.6147 15.8004C11.3669 15.6705 11.2792 15.3633 11.3923 15.0177L13.4678 8.69978H10.6494L8.60459 14.9199C8.60459 14.9199 8.56241 15.0565 8.55378 15.0881C8.45121 15.4524 8.41717 15.8263 8.49914 16.1987C8.51534 16.2725 8.53664 16.345 8.56289 16.4159C8.61369 16.5552 8.68598 16.6857 8.77714 16.8027C8.92813 16.9949 9.12752 17.1094 9.35232 17.1943C9.46544 17.2375 9.58344 17.2666 9.70366 17.281Z" fill="#023F97"/>
</g>
<path d="M39.4766 17.2051C40.1875 17.2051 40.7969 17.0742 41.3047 16.8125C41.8164 16.5508 42.209 16.1875 42.4824 15.7227C42.7598 15.2539 42.8984 14.709 42.8984 14.0879V8.54492H41.5801V13.9883C41.5801 14.5977 41.3984 15.0918 41.0352 15.4707C40.6719 15.8496 40.1523 16.0391 39.4766 16.0391C38.8086 16.0391 38.2891 15.8496 37.918 15.4707C37.5508 15.0918 37.3672 14.5977 37.3672 13.9883V8.54492H36.0488V14.0879C36.0488 14.709 36.1875 15.2539 36.4648 15.7227C36.7422 16.1875 37.1367 16.5508 37.6484 16.8125C38.1602 17.0742 38.7695 17.2051 39.4766 17.2051ZM44.8672 19.1211H46.1387V15.9922H46.2383C46.3516 16.2227 46.5059 16.4199 46.7012 16.584C46.8965 16.748 47.1211 16.877 47.375 16.9707C47.6289 17.0605 47.9023 17.1055 48.1953 17.1055C48.7344 17.1055 49.2012 16.9727 49.5957 16.707C49.9902 16.4375 50.2949 16.0586 50.5098 15.5703C50.7246 15.0781 50.832 14.4961 50.832 13.8242V13.8125C50.832 13.1445 50.7227 12.5664 50.5039 12.0781C50.2891 11.5859 49.9844 11.2051 49.5898 10.9355C49.1953 10.6621 48.7305 10.5254 48.1953 10.5254C47.8984 10.5254 47.625 10.5703 47.375 10.6602C47.125 10.75 46.9023 10.877 46.707 11.041C46.5156 11.2051 46.3594 11.4043 46.2383 11.6387H46.1387V10.6367H44.8672V19.1211ZM47.832 16.0156C47.4805 16.0156 47.1758 15.9277 46.918 15.752C46.6602 15.5723 46.4629 15.3184 46.3262 14.9902C46.1895 14.6621 46.1211 14.2734 46.1211 13.8242V13.8125C46.1211 13.3555 46.1895 12.9648 46.3262 12.6406C46.4629 12.3125 46.6602 12.0605 46.918 11.8848C47.1758 11.7051 47.4805 11.6152 47.832 11.6152C48.1875 11.6152 48.4922 11.7031 48.7461 11.8789C49 12.0547 49.1934 12.3066 49.3262 12.6348C49.4629 12.9629 49.5312 13.3555 49.5312 13.8125V13.8242C49.5312 14.2773 49.4629 14.668 49.3262 14.9961C49.1934 15.3242 49 15.5762 48.7461 15.752C48.4922 15.9277 48.1875 16.0156 47.832 16.0156ZM55.7422 17.1055C56.2773 17.1055 56.7422 16.9727 57.1367 16.707C57.5312 16.4375 57.8359 16.0566 58.0508 15.5645C58.2695 15.0723 58.3789 14.4922 58.3789 13.8242V13.8125C58.3789 13.1406 58.2715 12.5586 58.0566 12.0664C57.8418 11.5742 57.5371 11.1953 57.1426 10.9297C56.748 10.6602 56.2812 10.5254 55.7422 10.5254C55.3047 10.5254 54.9102 10.627 54.5586 10.8301C54.2109 11.0293 53.9531 11.3008 53.7852 11.6445H53.6855V8.14062H52.4141V17H53.6855V15.998H53.7852C53.9727 16.3457 54.2344 16.6172 54.5703 16.8125C54.9062 17.0078 55.2969 17.1055 55.7422 17.1055ZM55.3789 16.0156C55.0273 16.0156 54.7227 15.9277 54.4648 15.752C54.207 15.5762 54.0098 15.3242 53.873 14.9961C53.7363 14.6641 53.668 14.2734 53.668 13.8242V13.8125C53.668 13.3594 53.7363 12.9688 53.873 12.6406C54.0098 12.3125 54.207 12.0605 54.4648 11.8848C54.7227 11.7051 55.0273 11.6152 55.3789 11.6152C55.7344 11.6152 56.0391 11.7051 56.293 11.8848C56.5469 12.0605 56.7402 12.3125 56.873 12.6406C57.0098 12.9648 57.0781 13.3555 57.0781 13.8125V13.8242C57.0781 14.2773 57.0098 14.668 56.873 14.9961C56.7402 15.3242 56.5469 15.5762 56.293 15.752C56.0391 15.9277 55.7344 16.0156 55.3789 16.0156ZM59.9082 17H61.1855V10.6367H59.9082V17ZM60.5527 9.5C60.7715 9.5 60.959 9.42188 61.1152 9.26562C61.2715 9.10938 61.3496 8.92188 61.3496 8.70312C61.3496 8.48438 61.2715 8.29883 61.1152 8.14648C60.959 7.99023 60.7715 7.91211 60.5527 7.91211C60.334 7.91211 60.1465 7.99023 59.9902 8.14648C59.834 8.29883 59.7559 8.48438 59.7559 8.70312C59.7559 8.92188 59.834 9.10938 59.9902 9.26562C60.1465 9.42188 60.334 9.5 60.5527 9.5ZM65.4336 17.041C65.5586 17.041 65.6797 17.0332 65.7969 17.0176C65.9141 17.0059 66.0234 16.9922 66.125 16.9766V15.957C66.0352 15.9648 65.9551 15.9707 65.8848 15.9746C65.8184 15.9785 65.7383 15.9805 65.6445 15.9805C65.3281 15.9805 65.1016 15.9062 64.9648 15.7578C64.8281 15.6055 64.7598 15.3574 64.7598 15.0137V11.6387H66.125V10.6367H64.7598V9.03125H63.459V10.6367H62.4629V11.6387H63.459V15.3242C63.459 15.9336 63.6133 16.373 63.9219 16.6426C64.2344 16.9082 64.7383 17.041 65.4336 17.041Z" fill="#111432"/>
<defs>
<clipPath id="clip0_260_8858">
<rect width="24" height="24" fill="white" transform="translate(6 1)"/>
</clipPath>
</defs>
</svg>
