<svg width="89" height="26" viewBox="0 0 89 26" fill="none" xmlns="http://www.w3.org/2000/svg">
<g clip-path="url(#clip0_439_1845)">
<path fill-rule="evenodd" clip-rule="evenodd" d="M18.0002 25.0005C24.6278 25.0005 30.0005 19.6278 30.0005 13.0002C30.0005 6.37269 24.6278 1 18.0002 1C11.3727 1 6 6.37269 6 13.0002C6 19.6278 11.3727 25.0005 18.0002 25.0005ZM18.0002 21.2504C21.9117 21.2504 25.1874 18.5284 26.0364 14.8753H22.0923C21.3813 16.4244 19.8164 17.5003 18.0002 17.5003C15.5149 17.5003 13.5001 15.4856 13.5001 13.0002C13.5001 10.5149 15.5149 8.50014 18.0002 8.50014C19.8888 8.50014 21.5056 9.6635 22.1732 11.3127H26.0776C25.2988 7.56562 21.9783 4.75007 18.0002 4.75007C13.4438 4.75007 9.75007 8.44379 9.75007 13.0002C9.75007 17.5567 13.4438 21.2504 18.0002 21.2504Z" fill="#727272"/>
</g>
<path d="M39.5293 17.2051C40.1621 17.2051 40.7266 17.0938 41.2227 16.8711C41.7188 16.6445 42.125 16.3281 42.4414 15.9219C42.7578 15.5156 42.957 15.041 43.0391 14.498L43.0449 14.4688H41.7324L41.7207 14.4922C41.6465 14.8086 41.5078 15.084 41.3047 15.3184C41.1016 15.5488 40.8477 15.7266 40.543 15.8516C40.2422 15.9766 39.9062 16.0391 39.5352 16.0391C39.0273 16.0391 38.5879 15.9062 38.2168 15.6406C37.8496 15.375 37.5645 14.998 37.3613 14.5098C37.1621 14.0215 37.0625 13.4453 37.0625 12.7812V12.7695C37.0625 12.0977 37.1621 11.5195 37.3613 11.0352C37.5645 10.5469 37.8496 10.1699 38.2168 9.9043C38.5879 9.63867 39.0254 9.50586 39.5293 9.50586C39.9004 9.50586 40.2363 9.57617 40.5371 9.7168C40.8379 9.85742 41.0918 10.0547 41.2988 10.3086C41.5059 10.5625 41.6484 10.8633 41.7266 11.2109L41.7324 11.2344H43.0391V11.1992C42.9688 10.6406 42.7715 10.1465 42.4473 9.7168C42.127 9.28711 41.7148 8.95117 41.2109 8.70898C40.7109 8.46289 40.1504 8.33984 39.5293 8.33984C38.7441 8.33984 38.0664 8.51953 37.4961 8.87891C36.9258 9.23828 36.4863 9.74805 36.1777 10.4082C35.8691 11.0684 35.7148 11.8555 35.7148 12.7695V12.7812C35.7148 13.6914 35.8691 14.4766 36.1777 15.1367C36.4863 15.7969 36.9258 16.3066 37.4961 16.666C38.0703 17.0254 38.748 17.2051 39.5293 17.2051ZM47.3164 17.123C47.9414 17.123 48.4766 16.9902 48.9219 16.7246C49.3711 16.459 49.7168 16.0801 49.959 15.5879C50.2051 15.0918 50.3281 14.5039 50.3281 13.8242V13.8125C50.3281 13.1289 50.2051 12.541 49.959 12.0488C49.7168 11.5527 49.3711 11.1738 48.9219 10.9121C48.4727 10.6465 47.9375 10.5137 47.3164 10.5137C46.6992 10.5137 46.1641 10.6465 45.7109 10.9121C45.2617 11.1777 44.9141 11.5566 44.668 12.0488C44.4258 12.541 44.3047 13.1289 44.3047 13.8125V13.8242C44.3047 14.5039 44.4258 15.0918 44.668 15.5879C44.9102 16.0801 45.2559 16.459 45.7051 16.7246C46.1582 16.9902 46.6953 17.123 47.3164 17.123ZM47.3164 16.0566C46.9531 16.0566 46.6445 15.9688 46.3906 15.793C46.1367 15.6133 45.9414 15.3574 45.8047 15.0254C45.6719 14.6934 45.6055 14.293 45.6055 13.8242V13.8125C45.6055 13.3398 45.6719 12.9375 45.8047 12.6055C45.9414 12.2734 46.1367 12.0195 46.3906 11.8438C46.6445 11.6641 46.9531 11.5742 47.3164 11.5742C47.6797 11.5742 47.9883 11.6641 48.2422 11.8438C48.4961 12.0195 48.6895 12.2734 48.8223 12.6055C48.9551 12.9375 49.0215 13.3398 49.0215 13.8125V13.8242C49.0215 14.293 48.9551 14.6934 48.8223 15.0254C48.6895 15.3574 48.4961 15.6133 48.2422 15.793C47.9883 15.9688 47.6797 16.0566 47.3164 16.0566ZM51.8574 17H53.1348V10.6367H51.8574V17ZM52.502 9.5C52.7207 9.5 52.9082 9.42188 53.0645 9.26562C53.2207 9.10938 53.2988 8.92188 53.2988 8.70312C53.2988 8.48438 53.2207 8.29883 53.0645 8.14648C52.9082 7.99023 52.7207 7.91211 52.502 7.91211C52.2832 7.91211 52.0957 7.99023 51.9395 8.14648C51.7832 8.29883 51.7051 8.48438 51.7051 8.70312C51.7051 8.92188 51.7832 9.10938 51.9395 9.26562C52.0957 9.42188 52.2832 9.5 52.502 9.5ZM54.9805 17H56.252V13.2676C56.252 12.9238 56.3125 12.6289 56.4336 12.3828C56.5586 12.1328 56.7344 11.9414 56.9609 11.8086C57.1875 11.6719 57.4551 11.6035 57.7637 11.6035C58.2324 11.6035 58.5762 11.7344 58.7949 11.9961C59.0176 12.2539 59.1289 12.6484 59.1289 13.1797V17H60.4062V12.8809C60.4062 12.123 60.2168 11.5391 59.8379 11.1289C59.459 10.7188 58.9121 10.5137 58.1973 10.5137C57.7324 10.5137 57.3477 10.6094 57.043 10.8008C56.7383 10.9922 56.5078 11.2578 56.3516 11.5977H56.252V10.6367H54.9805V17ZM65.5625 17.1055C66.0977 17.1055 66.5625 16.9727 66.957 16.707C67.3516 16.4375 67.6562 16.0566 67.8711 15.5645C68.0898 15.0723 68.1992 14.4922 68.1992 13.8242V13.8125C68.1992 13.1406 68.0918 12.5586 67.877 12.0664C67.6621 11.5742 67.3574 11.1953 66.9629 10.9297C66.5684 10.6602 66.1016 10.5254 65.5625 10.5254C65.125 10.5254 64.7305 10.627 64.3789 10.8301C64.0312 11.0293 63.7734 11.3008 63.6055 11.6445H63.5059V8.14062H62.2344V17H63.5059V15.998H63.6055C63.793 16.3457 64.0547 16.6172 64.3906 16.8125C64.7266 17.0078 65.1172 17.1055 65.5625 17.1055ZM65.1992 16.0156C64.8477 16.0156 64.543 15.9277 64.2852 15.752C64.0273 15.5762 63.8301 15.3242 63.6934 14.9961C63.5566 14.6641 63.4883 14.2734 63.4883 13.8242V13.8125C63.4883 13.3594 63.5566 12.9688 63.6934 12.6406C63.8301 12.3125 64.0273 12.0605 64.2852 11.8848C64.543 11.7051 64.8477 11.6152 65.1992 11.6152C65.5547 11.6152 65.8594 11.7051 66.1133 11.8848C66.3672 12.0605 66.5605 12.3125 66.6934 12.6406C66.8301 12.9648 66.8984 13.3555 66.8984 13.8125V13.8242C66.8984 14.2773 66.8301 14.668 66.6934 14.9961C66.5605 15.3242 66.3672 15.5762 66.1133 15.752C65.8594 15.9277 65.5547 16.0156 65.1992 16.0156ZM71.457 17.1055C71.7383 17.1055 71.998 17.0664 72.2363 16.9883C72.4746 16.9102 72.6875 16.7969 72.875 16.6484C73.0625 16.4961 73.2188 16.3125 73.3438 16.0977H73.4375V17H74.7031V12.6465C74.7031 12.2012 74.6055 11.8203 74.4102 11.5039C74.2188 11.1836 73.9355 10.9395 73.5605 10.7715C73.1895 10.5996 72.7363 10.5137 72.2012 10.5137C71.7207 10.5137 71.293 10.5859 70.918 10.7305C70.5469 10.875 70.2461 11.0781 70.0156 11.3398C69.7891 11.5977 69.6504 11.9023 69.5996 12.2539L69.5938 12.2949H70.8184L70.8301 12.2773C70.9043 12.0508 71.0527 11.875 71.2754 11.75C71.502 11.625 71.793 11.5625 72.1484 11.5625C72.5742 11.5625 72.8945 11.6562 73.1094 11.8438C73.3281 12.0273 73.4375 12.2949 73.4375 12.6465V14.6504C73.4375 14.9238 73.3672 15.1699 73.2266 15.3887C73.0859 15.6035 72.8906 15.7754 72.6406 15.9043C72.3945 16.0293 72.1133 16.0918 71.7969 16.0918C71.457 16.0918 71.1758 16.0098 70.9531 15.8457C70.7305 15.6777 70.6191 15.4492 70.6191 15.1602V15.1484C70.6191 14.8633 70.7227 14.6426 70.9297 14.4863C71.1367 14.3262 71.459 14.2324 71.8965 14.2051L74.0703 14.0645V13.168L71.7207 13.3086C70.9629 13.3555 70.377 13.541 69.9629 13.8652C69.5527 14.1855 69.3477 14.6309 69.3477 15.2012V15.2129C69.3477 15.5957 69.4395 15.9297 69.623 16.2148C69.8066 16.5 70.0566 16.7207 70.373 16.877C70.6934 17.0293 71.0547 17.1055 71.457 17.1055ZM78.8105 17.123C79.3184 17.123 79.7695 17.041 80.1641 16.877C80.5625 16.709 80.877 16.4766 81.1074 16.1797C81.3379 15.8789 81.4531 15.5332 81.4531 15.1426V15.1309C81.4531 14.6699 81.3027 14.3027 81.002 14.0293C80.7051 13.7559 80.252 13.5469 79.6426 13.4023L78.6289 13.1738C78.2734 13.0879 78.0176 12.9805 77.8613 12.8516C77.7051 12.7227 77.627 12.5586 77.627 12.3594V12.3477C77.627 12.1758 77.6777 12.0273 77.7793 11.9023C77.8848 11.7734 78.0273 11.6738 78.207 11.6035C78.3867 11.5293 78.5918 11.4922 78.8223 11.4922C79.1816 11.4922 79.4707 11.5664 79.6895 11.7148C79.9121 11.8633 80.0527 12.0488 80.1113 12.2715V12.2832H81.3301V12.2773C81.291 11.9297 81.166 11.625 80.9551 11.3633C80.7441 11.0977 80.457 10.8906 80.0938 10.7422C79.7344 10.5898 79.3125 10.5137 78.8281 10.5137C78.3477 10.5137 77.9199 10.5957 77.5449 10.7598C77.1738 10.9199 76.8828 11.1445 76.6719 11.4336C76.4609 11.7188 76.3555 12.0469 76.3555 12.418V12.4238C76.3555 12.8887 76.498 13.2637 76.7832 13.5488C77.0723 13.8301 77.5156 14.0391 78.1133 14.1758L79.1328 14.4102C79.5 14.4961 79.7637 14.6074 79.9238 14.7441C80.084 14.8809 80.1641 15.0488 80.1641 15.248V15.2598C80.1641 15.4316 80.1074 15.584 79.9941 15.7168C79.8809 15.8496 79.7246 15.9531 79.5254 16.0273C79.3301 16.1016 79.1016 16.1387 78.8398 16.1387C78.4609 16.1387 78.1562 16.0645 77.9258 15.916C77.6953 15.7676 77.5391 15.5742 77.457 15.3359V15.3242H76.1797V15.3359C76.2188 15.6914 76.3496 16.0039 76.5723 16.2734C76.7949 16.5391 77.0957 16.748 77.4746 16.9004C77.8535 17.0488 78.2988 17.123 78.8105 17.123ZM85.6367 17.123C86.0469 17.123 86.4082 17.0703 86.7207 16.9648C87.0371 16.8594 87.3066 16.7207 87.5293 16.5488C87.7559 16.377 87.9375 16.1875 88.0742 15.9805C88.2109 15.7695 88.3066 15.5586 88.3613 15.3477L88.373 15.2949H87.1426L87.1191 15.3418C87.0723 15.4512 86.9844 15.5625 86.8555 15.6758C86.7305 15.7891 86.5684 15.8848 86.3691 15.9629C86.1738 16.0371 85.9395 16.0742 85.666 16.0742C85.3105 16.0742 85.002 15.9961 84.7402 15.8398C84.4824 15.6836 84.2832 15.457 84.1426 15.1602C84.002 14.8633 83.9316 14.5059 83.9316 14.0879V13.5781C83.9316 13.1406 84.002 12.7715 84.1426 12.4707C84.2871 12.1699 84.4824 11.9434 84.7285 11.791C84.9785 11.6348 85.2617 11.5566 85.5781 11.5566C85.8945 11.5566 86.1738 11.6309 86.416 11.7793C86.6582 11.9277 86.8477 12.1523 86.9844 12.4531C87.125 12.75 87.1953 13.125 87.1953 13.5781V14.0879L87.8047 13.2441H83.293V14.1523H88.4375V13.707C88.4375 13.0664 88.3223 12.5078 88.0918 12.0312C87.8613 11.5508 87.5312 11.1777 87.1016 10.9121C86.6758 10.6465 86.166 10.5137 85.5723 10.5137C84.9824 10.5137 84.4668 10.6523 84.0254 10.9297C83.5879 11.207 83.248 11.5938 83.0059 12.0898C82.7676 12.5859 82.6484 13.166 82.6484 13.8301V13.8359C82.6484 14.5078 82.7676 15.0898 83.0059 15.582C83.248 16.0742 83.5918 16.4551 84.0371 16.7246C84.4824 16.9902 85.0156 17.123 85.6367 17.123Z" fill="#727272"/>
<defs>
<clipPath id="clip0_439_1845">
<rect width="24" height="24" fill="white" transform="translate(6 1)"/>
</clipPath>
</defs>
</svg>
