<svg width="89" height="26" viewBox="0 0 89 26" fill="none" xmlns="http://www.w3.org/2000/svg">
<g clip-path="url(#clip0_439_1848)">
<path fill-rule="evenodd" clip-rule="evenodd" d="M14.6633 13.0027L21.8497 20.1122L26.3858 15.6253C27.1969 14.9029 28.4378 14.935 29.2096 15.6984C29.9814 16.4618 30.0139 17.6893 29.2836 18.4916L23.2975 24.4138C22.4934 25.196 21.2038 25.196 20.3997 24.4138L11.7633 15.8689V20.9478C11.7633 22.0687 10.8447 22.9774 9.7115 22.9774C8.5783 22.9774 7.65967 22.0687 7.65967 20.9478V5.05089C7.65967 3.93 8.5783 3.02133 9.7115 3.02133C10.8447 3.02133 11.7633 3.93 11.7633 5.05089V10.1297L20.3986 1.58709C21.2024 0.804305 22.4925 0.804305 23.2964 1.58709L29.2869 7.50819C30.0172 8.3105 29.9847 9.53794 29.213 10.3013C28.4412 11.0648 27.2003 11.0969 26.3891 10.3745L21.8531 5.88763L14.6633 13.0027ZM21.8531 10.9709C21.0222 10.9704 20.2728 11.4652 19.9546 12.2244C19.6363 12.9835 19.8117 13.8576 20.3991 14.4389C20.9865 15.0202 21.8701 15.1943 22.6377 14.8799C23.4054 14.5654 23.906 13.8245 23.906 13.0027C23.9063 12.4638 23.6902 11.9469 23.3052 11.5657C22.9202 11.1844 22.3978 10.9701 21.8531 10.9698V10.9709Z" fill="#727272"/>
</g>
<path d="M37.7617 14.3105L38.9395 12.9746L39.6367 12.3477L43.0234 8.54492H41.4648L37.9727 12.541H37.6973L37.7617 14.3105ZM36.5605 17H37.873V8.54492H36.5605V17ZM41.6582 17H43.2988L39.6484 12.0723L38.7227 12.9629L41.6582 17ZM46.2578 17.123C46.7227 17.123 47.1133 17.0273 47.4297 16.8359C47.7461 16.6445 47.9805 16.3789 48.1328 16.0391H48.2266V17H49.5039V10.6367H48.2266V14.3691C48.2266 14.709 48.168 15.0039 48.0508 15.2539C47.9336 15.5 47.7578 15.6914 47.5234 15.8281C47.293 15.9609 47.0098 16.0273 46.6738 16.0273C46.2051 16.0273 45.8672 15.8965 45.6602 15.6348C45.4531 15.373 45.3496 14.9805 45.3496 14.457V10.6367H44.0781V14.7559C44.0781 15.2559 44.1582 15.6836 44.3184 16.0391C44.4824 16.3906 44.7266 16.6602 45.0508 16.8477C45.3789 17.0312 45.7812 17.123 46.2578 17.123ZM54.0098 17.123C54.5371 17.123 54.9883 17.0352 55.3633 16.8594C55.7422 16.6797 56.0449 16.4336 56.2715 16.1211C56.498 15.8086 56.6484 15.4453 56.7227 15.0312L56.7344 14.9785L55.5156 14.9844L55.5039 15.0137C55.4023 15.3574 55.2266 15.6172 54.9766 15.793C54.7305 15.9688 54.4082 16.0566 54.0098 16.0566C53.6621 16.0566 53.3613 15.9668 53.1074 15.7871C52.8535 15.6035 52.6582 15.3438 52.5215 15.0078C52.3848 14.6719 52.3164 14.2695 52.3164 13.8008V13.7891C52.3164 13.332 52.3828 12.9375 52.5156 12.6055C52.6523 12.2734 52.8477 12.0195 53.1016 11.8438C53.3555 11.6641 53.6582 11.5742 54.0098 11.5742C54.4316 11.5742 54.7695 11.6797 55.0234 11.8906C55.2773 12.0977 55.4395 12.3574 55.5098 12.6699L55.5156 12.6816H56.7402L56.7344 12.6523C56.6758 12.2422 56.5312 11.877 56.3008 11.5566C56.0742 11.2324 55.7676 10.9785 55.3809 10.7949C54.998 10.6074 54.5391 10.5137 54.0039 10.5137C53.3867 10.5137 52.8535 10.6465 52.4043 10.9121C51.959 11.1777 51.6152 11.5547 51.373 12.043C51.1348 12.5312 51.0156 13.1133 51.0156 13.7891V13.8008C51.0156 14.4883 51.1367 15.0801 51.3789 15.5762C51.6211 16.0723 51.9648 16.4551 52.4102 16.7246C52.8594 16.9902 53.3926 17.123 54.0098 17.123ZM60.8711 17.123C61.4961 17.123 62.0312 16.9902 62.4766 16.7246C62.9258 16.459 63.2715 16.0801 63.5137 15.5879C63.7598 15.0918 63.8828 14.5039 63.8828 13.8242V13.8125C63.8828 13.1289 63.7598 12.541 63.5137 12.0488C63.2715 11.5527 62.9258 11.1738 62.4766 10.9121C62.0273 10.6465 61.4922 10.5137 60.8711 10.5137C60.2539 10.5137 59.7188 10.6465 59.2656 10.9121C58.8164 11.1777 58.4688 11.5566 58.2227 12.0488C57.9805 12.541 57.8594 13.1289 57.8594 13.8125V13.8242C57.8594 14.5039 57.9805 15.0918 58.2227 15.5879C58.4648 16.0801 58.8105 16.459 59.2598 16.7246C59.7129 16.9902 60.25 17.123 60.8711 17.123ZM60.8711 16.0566C60.5078 16.0566 60.1992 15.9688 59.9453 15.793C59.6914 15.6133 59.4961 15.3574 59.3594 15.0254C59.2266 14.6934 59.1602 14.293 59.1602 13.8242V13.8125C59.1602 13.3398 59.2266 12.9375 59.3594 12.6055C59.4961 12.2734 59.6914 12.0195 59.9453 11.8438C60.1992 11.6641 60.5078 11.5742 60.8711 11.5742C61.2344 11.5742 61.543 11.6641 61.7969 11.8438C62.0508 12.0195 62.2441 12.2734 62.377 12.6055C62.5098 12.9375 62.5762 13.3398 62.5762 13.8125V13.8242C62.5762 14.293 62.5098 14.6934 62.377 15.0254C62.2441 15.3574 62.0508 15.6133 61.7969 15.793C61.543 15.9688 61.2344 16.0566 60.8711 16.0566ZM65.4121 17H66.6895V10.6367H65.4121V17ZM66.0566 9.5C66.2754 9.5 66.4629 9.42188 66.6191 9.26562C66.7754 9.10938 66.8535 8.92188 66.8535 8.70312C66.8535 8.48438 66.7754 8.29883 66.6191 8.14648C66.4629 7.99023 66.2754 7.91211 66.0566 7.91211C65.8379 7.91211 65.6504 7.99023 65.4941 8.14648C65.3379 8.29883 65.2598 8.48438 65.2598 8.70312C65.2598 8.92188 65.3379 9.10938 65.4941 9.26562C65.6504 9.42188 65.8379 9.5 66.0566 9.5ZM68.5352 17H69.8066V13.2676C69.8066 12.9238 69.8672 12.6289 69.9883 12.3828C70.1133 12.1328 70.2891 11.9414 70.5156 11.8086C70.7422 11.6719 71.0098 11.6035 71.3184 11.6035C71.7871 11.6035 72.1309 11.7344 72.3496 11.9961C72.5723 12.2539 72.6836 12.6484 72.6836 13.1797V17H73.9609V12.8809C73.9609 12.123 73.7715 11.5391 73.3926 11.1289C73.0137 10.7188 72.4668 10.5137 71.752 10.5137C71.2871 10.5137 70.9023 10.6094 70.5977 10.8008C70.293 10.9922 70.0625 11.2578 69.9062 11.5977H69.8066V10.6367H68.5352V17Z" fill="#727272"/>
<defs>
<clipPath id="clip0_439_1848">
<rect width="24" height="24" fill="white" transform="translate(6.5 1)"/>
</clipPath>
</defs>
</svg>
