<svg width="24" height="24" viewBox="0 0 24 24" fill="none" xmlns="http://www.w3.org/2000/svg">
<path d="M18.9701 6.06819C19.686 4.73864 18.8678 3 18.8678 3C17.0269 3 15.6974 4.22727 15.6974 4.22727C14.9814 3.81817 12.6292 3.81817 12.6292 3.81817C12.6292 3.81817 10.2769 3.81817 9.56098 4.22727C9.56098 4.22727 8.23143 3 6.39051 3C6.39051 3 5.57232 4.73864 6.28823 6.06819C6.28823 6.06819 4.65187 7.60229 5.26551 10.875C5.84214 13.9504 8.53823 14.7614 10.2769 14.7614C10.2769 14.7614 9.56096 15.375 9.66324 16.3978C9.66324 16.3978 8.64051 17.0114 7.61778 16.6023C6.59505 16.1932 6.08368 15.1705 6.08368 15.1705C6.08368 15.1705 5.06095 13.8409 4.03822 14.3523C4.03822 14.3523 3.7314 14.6591 4.85641 15.1705C4.85641 15.1705 5.6746 16.3977 5.98142 17.1136C6.28823 17.8296 7.9246 18.4432 9.56098 18.0341V20.3864C9.56098 20.3864 9.56098 20.5909 9.15188 20.6932C8.74279 20.7955 8.74279 21 8.94735 21H16.311C16.5155 21 16.5155 20.7955 16.1064 20.6932C15.6974 20.5909 15.6974 20.3864 15.6974 20.3864V18.0341C15.6974 18.0341 15.7063 16.8075 15.6974 16.3977C15.6749 15.3702 14.9814 14.7614 14.9814 14.7614C16.7201 14.7614 19.4162 13.9504 19.9928 10.875C20.6065 7.60229 18.9701 6.06819 18.9701 6.06819Z" fill="#111432"/>
</svg>
