<svg width="24" height="24" viewBox="0 0 24 24" fill="none" xmlns="http://www.w3.org/2000/svg">
<path fill-rule="evenodd" clip-rule="evenodd" d="M2 4C2 2.89543 2.89543 2 4 2H20C21.1046 2 22 2.89543 22 4V20C22 21.1046 21.1046 22 20 22H4C2.89543 22 2 21.1046 2 20V4ZM7.33333 8.66667H6V7.33333H8C8.21813 7.33333 8.41179 7.4381 8.53342 7.60005L12.0001 12.2222L15.4579 7.61193C15.5788 7.44324 15.7766 7.33333 16 7.33333H18V8.66667H16.6667V15.3333H18V16.6667H14V15.3333H15.3333V10.0002L12.0001 14.4445L8.66667 9.99984V15.3333H10V16.6667H6V15.3333H7.33333V8.66667Z" fill="#111432"/>
</svg>
