<svg width="24" height="24" viewBox="0 0 24 24" fill="none" xmlns="http://www.w3.org/2000/svg">
<path fill-rule="evenodd" clip-rule="evenodd" d="M3.32907 10.8879C8.51881 8.62993 11.9794 7.14134 13.711 6.42212C18.6549 4.36862 19.6822 4.0119 20.3518 4.00013C20.499 3.99753 20.8283 4.03398 21.0416 4.20682C21.2217 4.35275 21.2713 4.5499 21.295 4.68826C21.3187 4.82663 21.3482 5.14183 21.3247 5.38811C21.0568 8.1992 19.8976 15.021 19.3078 18.1694C19.0583 19.5017 18.5669 19.9484 18.0912 19.9921C17.0574 20.0871 16.2723 19.3098 15.271 18.6543C13.7042 17.6287 12.819 16.9902 11.2982 15.9893C9.54051 14.8327 10.6799 14.1969 11.6816 13.158C11.9437 12.8861 16.4988 8.74867 16.5869 8.37335C16.5979 8.32641 16.6082 8.15143 16.5041 8.05904C16.4 7.96664 16.2464 7.99824 16.1355 8.02337C15.9783 8.05898 13.4753 9.71112 8.62637 12.9798C7.91589 13.467 7.27236 13.7044 6.69578 13.6919C6.06014 13.6782 4.83743 13.333 3.92848 13.038C2.8136 12.6761 1.92753 12.4847 2.00468 11.8701C2.04487 11.55 2.48633 11.2226 3.32907 10.8879Z" fill="#111432"/>
</svg>
