<svg width="86" height="26" viewBox="0 0 86 26" fill="none" xmlns="http://www.w3.org/2000/svg">
<g clip-path="url(#clip0_439_1845)">
<path fill-rule="evenodd" clip-rule="evenodd" d="M13.0002 25.0005C19.6278 25.0005 25.0005 19.6278 25.0005 13.0002C25.0005 6.37269 19.6278 1 13.0002 1C6.37268 1 1 6.37269 1 13.0002C1 19.6278 6.37268 25.0005 13.0002 25.0005ZM13.0002 21.2504C16.9117 21.2504 20.1874 18.5284 21.0364 14.8753H17.0923C16.3813 16.4244 14.8164 17.5003 13.0002 17.5003C10.5149 17.5003 8.50014 15.4856 8.50014 13.0002C8.50014 10.5149 10.5149 8.50014 13.0002 8.50014C14.8888 8.50014 16.5056 9.6635 17.1732 11.3127H21.0776C20.2988 7.56562 16.9783 4.75007 13.0002 4.75007C8.44379 4.75007 4.75007 8.44379 4.75007 13.0002C4.75007 17.5567 8.44379 21.2504 13.0002 21.2504Z" fill="#727272"/>
</g>
<path d="M34.5293 17.2051C35.1621 17.2051 35.7266 17.0938 36.2227 16.8711C36.7188 16.6445 37.125 16.3281 37.4414 15.9219C37.7578 15.5156 37.957 15.041 38.0391 14.498L38.0449 14.4688H36.7324L36.7207 14.4922C36.6465 14.8086 36.5078 15.084 36.3047 15.3184C36.1016 15.5488 35.8477 15.7266 35.543 15.8516C35.2422 15.9766 34.9062 16.0391 34.5352 16.0391C34.0273 16.0391 33.5879 15.9062 33.2168 15.6406C32.8496 15.375 32.5645 14.998 32.3613 14.5098C32.1621 14.0215 32.0625 13.4453 32.0625 12.7812V12.7695C32.0625 12.0977 32.1621 11.5195 32.3613 11.0352C32.5645 10.5469 32.8496 10.1699 33.2168 9.9043C33.5879 9.63867 34.0254 9.50586 34.5293 9.50586C34.9004 9.50586 35.2363 9.57617 35.5371 9.7168C35.8379 9.85742 36.0918 10.0547 36.2988 10.3086C36.5059 10.5625 36.6484 10.8633 36.7266 11.2109L36.7324 11.2344H38.0391V11.1992C37.9688 10.6406 37.7715 10.1465 37.4473 9.7168C37.127 9.28711 36.7148 8.95117 36.2109 8.70898C35.7109 8.46289 35.1504 8.33984 34.5293 8.33984C33.7441 8.33984 33.0664 8.51953 32.4961 8.87891C31.9258 9.23828 31.4863 9.74805 31.1777 10.4082C30.8691 11.0684 30.7148 11.8555 30.7148 12.7695V12.7812C30.7148 13.6914 30.8691 14.4766 31.1777 15.1367C31.4863 15.7969 31.9258 16.3066 32.4961 16.666C33.0703 17.0254 33.748 17.2051 34.5293 17.2051ZM42.3164 17.123C42.9414 17.123 43.4766 16.9902 43.9219 16.7246C44.3711 16.459 44.7168 16.0801 44.959 15.5879C45.2051 15.0918 45.3281 14.5039 45.3281 13.8242V13.8125C45.3281 13.1289 45.2051 12.541 44.959 12.0488C44.7168 11.5527 44.3711 11.1738 43.9219 10.9121C43.4727 10.6465 42.9375 10.5137 42.3164 10.5137C41.6992 10.5137 41.1641 10.6465 40.7109 10.9121C40.2617 11.1777 39.9141 11.5566 39.668 12.0488C39.4258 12.541 39.3047 13.1289 39.3047 13.8125V13.8242C39.3047 14.5039 39.4258 15.0918 39.668 15.5879C39.9102 16.0801 40.2559 16.459 40.7051 16.7246C41.1582 16.9902 41.6953 17.123 42.3164 17.123ZM42.3164 16.0566C41.9531 16.0566 41.6445 15.9688 41.3906 15.793C41.1367 15.6133 40.9414 15.3574 40.8047 15.0254C40.6719 14.6934 40.6055 14.293 40.6055 13.8242V13.8125C40.6055 13.3398 40.6719 12.9375 40.8047 12.6055C40.9414 12.2734 41.1367 12.0195 41.3906 11.8438C41.6445 11.6641 41.9531 11.5742 42.3164 11.5742C42.6797 11.5742 42.9883 11.6641 43.2422 11.8438C43.4961 12.0195 43.6895 12.2734 43.8223 12.6055C43.9551 12.9375 44.0215 13.3398 44.0215 13.8125V13.8242C44.0215 14.293 43.9551 14.6934 43.8223 15.0254C43.6895 15.3574 43.4961 15.6133 43.2422 15.793C42.9883 15.9688 42.6797 16.0566 42.3164 16.0566ZM46.8574 17H48.1348V10.6367H46.8574V17ZM47.502 9.5C47.7207 9.5 47.9082 9.42188 48.0645 9.26562C48.2207 9.10938 48.2988 8.92188 48.2988 8.70312C48.2988 8.48438 48.2207 8.29883 48.0645 8.14648C47.9082 7.99023 47.7207 7.91211 47.502 7.91211C47.2832 7.91211 47.0957 7.99023 46.9395 8.14648C46.7832 8.29883 46.7051 8.48438 46.7051 8.70312C46.7051 8.92188 46.7832 9.10938 46.9395 9.26562C47.0957 9.42188 47.2832 9.5 47.502 9.5ZM49.9805 17H51.252V13.2676C51.252 12.9238 51.3125 12.6289 51.4336 12.3828C51.5586 12.1328 51.7344 11.9414 51.9609 11.8086C52.1875 11.6719 52.4551 11.6035 52.7637 11.6035C53.2324 11.6035 53.5762 11.7344 53.7949 11.9961C54.0176 12.2539 54.1289 12.6484 54.1289 13.1797V17H55.4062V12.8809C55.4062 12.123 55.2168 11.5391 54.8379 11.1289C54.459 10.7188 53.9121 10.5137 53.1973 10.5137C52.7324 10.5137 52.3477 10.6094 52.043 10.8008C51.7383 10.9922 51.5078 11.2578 51.3516 11.5977H51.252V10.6367H49.9805V17ZM60.5625 17.1055C61.0977 17.1055 61.5625 16.9727 61.957 16.707C62.3516 16.4375 62.6562 16.0566 62.8711 15.5645C63.0898 15.0723 63.1992 14.4922 63.1992 13.8242V13.8125C63.1992 13.1406 63.0918 12.5586 62.877 12.0664C62.6621 11.5742 62.3574 11.1953 61.9629 10.9297C61.5684 10.6602 61.1016 10.5254 60.5625 10.5254C60.125 10.5254 59.7305 10.627 59.3789 10.8301C59.0312 11.0293 58.7734 11.3008 58.6055 11.6445H58.5059V8.14062H57.2344V17H58.5059V15.998H58.6055C58.793 16.3457 59.0547 16.6172 59.3906 16.8125C59.7266 17.0078 60.1172 17.1055 60.5625 17.1055ZM60.1992 16.0156C59.8477 16.0156 59.543 15.9277 59.2852 15.752C59.0273 15.5762 58.8301 15.3242 58.6934 14.9961C58.5566 14.6641 58.4883 14.2734 58.4883 13.8242V13.8125C58.4883 13.3594 58.5566 12.9688 58.6934 12.6406C58.8301 12.3125 59.0273 12.0605 59.2852 11.8848C59.543 11.7051 59.8477 11.6152 60.1992 11.6152C60.5547 11.6152 60.8594 11.7051 61.1133 11.8848C61.3672 12.0605 61.5605 12.3125 61.6934 12.6406C61.8301 12.9648 61.8984 13.3555 61.8984 13.8125V13.8242C61.8984 14.2773 61.8301 14.668 61.6934 14.9961C61.5605 15.3242 61.3672 15.5762 61.1133 15.752C60.8594 15.9277 60.5547 16.0156 60.1992 16.0156ZM66.457 17.1055C66.7383 17.1055 66.998 17.0664 67.2363 16.9883C67.4746 16.9102 67.6875 16.7969 67.875 16.6484C68.0625 16.4961 68.2188 16.3125 68.3438 16.0977H68.4375V17H69.7031V12.6465C69.7031 12.2012 69.6055 11.8203 69.4102 11.5039C69.2188 11.1836 68.9355 10.9395 68.5605 10.7715C68.1895 10.5996 67.7363 10.5137 67.2012 10.5137C66.7207 10.5137 66.293 10.5859 65.918 10.7305C65.5469 10.875 65.2461 11.0781 65.0156 11.3398C64.7891 11.5977 64.6504 11.9023 64.5996 12.2539L64.5938 12.2949H65.8184L65.8301 12.2773C65.9043 12.0508 66.0527 11.875 66.2754 11.75C66.502 11.625 66.793 11.5625 67.1484 11.5625C67.5742 11.5625 67.8945 11.6562 68.1094 11.8438C68.3281 12.0273 68.4375 12.2949 68.4375 12.6465V14.6504C68.4375 14.9238 68.3672 15.1699 68.2266 15.3887C68.0859 15.6035 67.8906 15.7754 67.6406 15.9043C67.3945 16.0293 67.1133 16.0918 66.7969 16.0918C66.457 16.0918 66.1758 16.0098 65.9531 15.8457C65.7305 15.6777 65.6191 15.4492 65.6191 15.1602V15.1484C65.6191 14.8633 65.7227 14.6426 65.9297 14.4863C66.1367 14.3262 66.459 14.2324 66.8965 14.2051L69.0703 14.0645V13.168L66.7207 13.3086C65.9629 13.3555 65.377 13.541 64.9629 13.8652C64.5527 14.1855 64.3477 14.6309 64.3477 15.2012V15.2129C64.3477 15.5957 64.4395 15.9297 64.623 16.2148C64.8066 16.5 65.0566 16.7207 65.373 16.877C65.6934 17.0293 66.0547 17.1055 66.457 17.1055ZM73.8105 17.123C74.3184 17.123 74.7695 17.041 75.1641 16.877C75.5625 16.709 75.877 16.4766 76.1074 16.1797C76.3379 15.8789 76.4531 15.5332 76.4531 15.1426V15.1309C76.4531 14.6699 76.3027 14.3027 76.002 14.0293C75.7051 13.7559 75.252 13.5469 74.6426 13.4023L73.6289 13.1738C73.2734 13.0879 73.0176 12.9805 72.8613 12.8516C72.7051 12.7227 72.627 12.5586 72.627 12.3594V12.3477C72.627 12.1758 72.6777 12.0273 72.7793 11.9023C72.8848 11.7734 73.0273 11.6738 73.207 11.6035C73.3867 11.5293 73.5918 11.4922 73.8223 11.4922C74.1816 11.4922 74.4707 11.5664 74.6895 11.7148C74.9121 11.8633 75.0527 12.0488 75.1113 12.2715V12.2832H76.3301V12.2773C76.291 11.9297 76.166 11.625 75.9551 11.3633C75.7441 11.0977 75.457 10.8906 75.0938 10.7422C74.7344 10.5898 74.3125 10.5137 73.8281 10.5137C73.3477 10.5137 72.9199 10.5957 72.5449 10.7598C72.1738 10.9199 71.8828 11.1445 71.6719 11.4336C71.4609 11.7188 71.3555 12.0469 71.3555 12.418V12.4238C71.3555 12.8887 71.498 13.2637 71.7832 13.5488C72.0723 13.8301 72.5156 14.0391 73.1133 14.1758L74.1328 14.4102C74.5 14.4961 74.7637 14.6074 74.9238 14.7441C75.084 14.8809 75.1641 15.0488 75.1641 15.248V15.2598C75.1641 15.4316 75.1074 15.584 74.9941 15.7168C74.8809 15.8496 74.7246 15.9531 74.5254 16.0273C74.3301 16.1016 74.1016 16.1387 73.8398 16.1387C73.4609 16.1387 73.1562 16.0645 72.9258 15.916C72.6953 15.7676 72.5391 15.5742 72.457 15.3359V15.3242H71.1797V15.3359C71.2188 15.6914 71.3496 16.0039 71.5723 16.2734C71.7949 16.5391 72.0957 16.748 72.4746 16.9004C72.8535 17.0488 73.2988 17.123 73.8105 17.123ZM80.6367 17.123C81.0469 17.123 81.4082 17.0703 81.7207 16.9648C82.0371 16.8594 82.3066 16.7207 82.5293 16.5488C82.7559 16.377 82.9375 16.1875 83.0742 15.9805C83.2109 15.7695 83.3066 15.5586 83.3613 15.3477L83.373 15.2949H82.1426L82.1191 15.3418C82.0723 15.4512 81.9844 15.5625 81.8555 15.6758C81.7305 15.7891 81.5684 15.8848 81.3691 15.9629C81.1738 16.0371 80.9395 16.0742 80.666 16.0742C80.3105 16.0742 80.002 15.9961 79.7402 15.8398C79.4824 15.6836 79.2832 15.457 79.1426 15.1602C79.002 14.8633 78.9316 14.5059 78.9316 14.0879V13.5781C78.9316 13.1406 79.002 12.7715 79.1426 12.4707C79.2871 12.1699 79.4824 11.9434 79.7285 11.791C79.9785 11.6348 80.2617 11.5566 80.5781 11.5566C80.8945 11.5566 81.1738 11.6309 81.416 11.7793C81.6582 11.9277 81.8477 12.1523 81.9844 12.4531C82.125 12.75 82.1953 13.125 82.1953 13.5781V14.0879L82.8047 13.2441H78.293V14.1523H83.4375V13.707C83.4375 13.0664 83.3223 12.5078 83.0918 12.0312C82.8613 11.5508 82.5312 11.1777 82.1016 10.9121C81.6758 10.6465 81.166 10.5137 80.5723 10.5137C79.9824 10.5137 79.4668 10.6523 79.0254 10.9297C78.5879 11.207 78.248 11.5938 78.0059 12.0898C77.7676 12.5859 77.6484 13.166 77.6484 13.8301V13.8359C77.6484 14.5078 77.7676 15.0898 78.0059 15.582C78.248 16.0742 78.5918 16.4551 79.0371 16.7246C79.4824 16.9902 80.0156 17.123 80.6367 17.123Z" fill="#727272"/>
<defs>
<clipPath id="clip0_439_1845">
<rect width="24" height="24" fill="white" transform="translate(1 1)"/>
</clipPath>
</defs>
</svg>
