<svg width="89" height="25" viewBox="0 0 89 25" fill="none" xmlns="http://www.w3.org/2000/svg">
<g clip-path="url(#clip0_298_9087)">
<path d="M29.4998 9.94676C29.4733 9.92982 29.437 9.91626 29.4139 9.96032C29.3445 10.7975 28.5122 12.587 27.4552 14.2341C23.8715 19.8128 25.9127 22.5039 27.0621 23.9511C27.7294 24.7882 27.0622 23.9511 28.7269 23.0936C30.7846 21.8125 32.119 19.5959 32.3172 17.1353C32.6442 13.1699 30.3255 10.6721 29.4998 9.94676Z" fill="#2483FF"/>
<path d="M27.5909 7.67942C27.5909 4.23593 25.9559 1.27033 24.7107 0.307784C24.7107 0.307784 24.6149 0.253555 24.6248 0.392515C24.5224 7.04563 21.2095 8.84871 19.3895 11.2754C15.1881 16.8813 19.0923 23.026 23.0757 24.1614C25.2953 24.7986 22.5604 23.0362 22.207 19.3181C21.7743 14.8308 27.5909 11.4008 27.5909 7.67942Z" fill="#212121"/>
</g>
<path d="M41.0605 17H42.373V13.2559H46.709V17H48.0273V8.54492H46.709V12.1191H42.373V8.54492H41.0605V17ZM52.1289 17.123C52.5938 17.123 52.9844 17.0273 53.3008 16.8359C53.6172 16.6445 53.8516 16.3789 54.0039 16.0391H54.0977V17H55.375V10.6367H54.0977V14.3691C54.0977 14.709 54.0391 15.0039 53.9219 15.2539C53.8047 15.5 53.6289 15.6914 53.3945 15.8281C53.1641 15.9609 52.8809 16.0273 52.5449 16.0273C52.0762 16.0273 51.7383 15.8965 51.5312 15.6348C51.3242 15.373 51.2207 14.9805 51.2207 14.457V10.6367H49.9492V14.7559C49.9492 15.2559 50.0293 15.6836 50.1895 16.0391C50.3535 16.3906 50.5977 16.6602 50.9219 16.8477C51.25 17.0312 51.6523 17.123 52.1289 17.123ZM59.8984 17.123C60.5234 17.123 61.0586 16.9902 61.5039 16.7246C61.9531 16.459 62.2988 16.0801 62.541 15.5879C62.7871 15.0918 62.9102 14.5039 62.9102 13.8242V13.8125C62.9102 13.1289 62.7871 12.541 62.541 12.0488C62.2988 11.5527 61.9531 11.1738 61.5039 10.9121C61.0547 10.6465 60.5195 10.5137 59.8984 10.5137C59.2812 10.5137 58.7461 10.6465 58.293 10.9121C57.8438 11.1777 57.4961 11.5566 57.25 12.0488C57.0078 12.541 56.8867 13.1289 56.8867 13.8125V13.8242C56.8867 14.5039 57.0078 15.0918 57.25 15.5879C57.4922 16.0801 57.8379 16.459 58.2871 16.7246C58.7402 16.9902 59.2773 17.123 59.8984 17.123ZM59.8984 16.0566C59.5352 16.0566 59.2266 15.9688 58.9727 15.793C58.7188 15.6133 58.5234 15.3574 58.3867 15.0254C58.2539 14.6934 58.1875 14.293 58.1875 13.8242V13.8125C58.1875 13.3398 58.2539 12.9375 58.3867 12.6055C58.5234 12.2734 58.7188 12.0195 58.9727 11.8438C59.2266 11.6641 59.5352 11.5742 59.8984 11.5742C60.2617 11.5742 60.5703 11.6641 60.8242 11.8438C61.0781 12.0195 61.2715 12.2734 61.4043 12.6055C61.5371 12.9375 61.6035 13.3398 61.6035 13.8125V13.8242C61.6035 14.293 61.5371 14.6934 61.4043 15.0254C61.2715 15.3574 61.0781 15.6133 60.8242 15.793C60.5703 15.9688 60.2617 16.0566 59.8984 16.0566ZM67.8086 17.1055C68.3438 17.1055 68.8086 16.9727 69.2031 16.707C69.5977 16.4375 69.9023 16.0566 70.1172 15.5645C70.3359 15.0723 70.4453 14.4922 70.4453 13.8242V13.8125C70.4453 13.1406 70.3379 12.5586 70.123 12.0664C69.9082 11.5742 69.6035 11.1953 69.209 10.9297C68.8145 10.6602 68.3477 10.5254 67.8086 10.5254C67.3711 10.5254 66.9766 10.627 66.625 10.8301C66.2773 11.0293 66.0195 11.3008 65.8516 11.6445H65.752V8.14062H64.4805V17H65.752V15.998H65.8516C66.0391 16.3457 66.3008 16.6172 66.6367 16.8125C66.9727 17.0078 67.3633 17.1055 67.8086 17.1055ZM67.4453 16.0156C67.0938 16.0156 66.7891 15.9277 66.5312 15.752C66.2734 15.5762 66.0762 15.3242 65.9395 14.9961C65.8027 14.6641 65.7344 14.2734 65.7344 13.8242V13.8125C65.7344 13.3594 65.8027 12.9688 65.9395 12.6406C66.0762 12.3125 66.2734 12.0605 66.5312 11.8848C66.7891 11.7051 67.0938 11.6152 67.4453 11.6152C67.8008 11.6152 68.1055 11.7051 68.3594 11.8848C68.6133 12.0605 68.8066 12.3125 68.9395 12.6406C69.0762 12.9648 69.1445 13.3555 69.1445 13.8125V13.8242C69.1445 14.2773 69.0762 14.668 68.9395 14.9961C68.8066 15.3242 68.6133 15.5762 68.3594 15.752C68.1055 15.9277 67.8008 16.0156 67.4453 16.0156ZM71.9746 17H73.252V10.6367H71.9746V17ZM72.6191 9.5C72.8379 9.5 73.0254 9.42188 73.1816 9.26562C73.3379 9.10938 73.416 8.92188 73.416 8.70312C73.416 8.48438 73.3379 8.29883 73.1816 8.14648C73.0254 7.99023 72.8379 7.91211 72.6191 7.91211C72.4004 7.91211 72.2129 7.99023 72.0566 8.14648C71.9004 8.29883 71.8223 8.48438 71.8223 8.70312C71.8223 8.92188 71.9004 9.10938 72.0566 9.26562C72.2129 9.42188 72.4004 9.5 72.6191 9.5Z" fill="#111432"/>
<defs>
<clipPath id="clip0_298_9087">
<rect width="24" height="24" fill="white" transform="translate(14 0.297363)"/>
</clipPath>
</defs>
</svg>
