<svg width="24" height="24" viewBox="0 0 24 24" fill="none" xmlns="http://www.w3.org/2000/svg">
<path d="M9.88806 10.0679C9.20406 10.0679 8.66406 10.6679 8.66406 11.3999C8.66406 12.1319 9.21606 12.7319 9.88806 12.7319C10.5721 12.7319 11.1121 12.1319 11.1121 11.3999C11.1241 10.6679 10.5721 10.0679 9.88806 10.0679ZM14.2681 10.0679C13.5841 10.0679 13.0441 10.6679 13.0441 11.3999C13.0441 12.1319 13.5961 12.7319 14.2681 12.7319C14.9521 12.7319 15.4921 12.1319 15.4921 11.3999C15.4921 10.6679 14.9521 10.0679 14.2681 10.0679Z" fill="#111432"/>
<path d="M18.7743 0H4.22571C2.99886 0 2 0.998857 2 2.23657V16.9154C2 18.1531 2.99886 19.152 4.22571 19.152H16.5377L15.9623 17.1434L17.352 18.4354L18.6657 19.6514L21 21.7143V2.23657C21 0.998857 20.0011 0 18.7743 0ZM14.5834 14.1794C14.5834 14.1794 14.1926 13.7126 13.8669 13.3C15.2891 12.8983 15.832 12.008 15.832 12.008C15.3869 12.3011 14.9634 12.5074 14.5834 12.6486C14.0406 12.8766 13.5194 13.0286 13.0091 13.1154C11.9669 13.3109 11.0114 13.2566 10.1971 13.1046C9.57829 12.9851 9.04629 12.8114 8.60114 12.6377C8.35143 12.54 8.08 12.4206 7.80857 12.2686C7.776 12.2469 7.74343 12.236 7.71086 12.2143C7.68914 12.2034 7.67829 12.1926 7.66743 12.1817C7.472 12.0731 7.36343 11.9971 7.36343 11.9971C7.36343 11.9971 7.88457 12.8657 9.26343 13.2783C8.93771 13.6909 8.536 14.1794 8.536 14.1794C6.13657 14.1034 5.22457 12.5291 5.22457 12.5291C5.22457 9.03314 6.788 6.19943 6.788 6.19943C8.35143 5.02686 9.83886 5.05943 9.83886 5.05943L9.94743 5.18971C7.99314 5.75429 7.092 6.612 7.092 6.612C7.092 6.612 7.33086 6.48171 7.73257 6.29714C8.89429 5.78686 9.81714 5.64571 10.1971 5.61314C10.2623 5.60229 10.3166 5.59143 10.3817 5.59143C11.044 5.50457 11.7931 5.48286 12.5749 5.56971C13.6063 5.68914 14.7137 5.99314 15.8429 6.612C15.8429 6.612 14.9851 5.79771 13.1394 5.23314L13.2914 5.05943C13.2914 5.05943 14.7789 5.02686 16.3423 6.19943C16.3423 6.19943 17.9057 9.03314 17.9057 12.5291C17.9057 12.5291 16.9829 14.1034 14.5834 14.1794Z" fill="#111432"/>
</svg>
