<svg width="24" height="24" viewBox="0 0 24 24" fill="none" xmlns="http://www.w3.org/2000/svg">
<path d="M19.9442 7.9093C19.9569 8.08086 19.9569 8.25246 19.9569 8.42402C19.9569 13.6568 15.8326 19.6863 8.29444 19.6863C5.97209 19.6863 3.81473 19.0367 2 17.9093C2.32996 17.9461 2.64719 17.9583 2.98985 17.9583C4.90607 17.9583 6.67006 17.3334 8.0787 16.2672C6.27666 16.2304 4.7665 15.0907 4.24618 13.5221C4.50001 13.5588 4.7538 13.5833 5.02032 13.5833C5.38833 13.5833 5.75638 13.5343 6.099 13.4485C4.22083 13.0809 2.81215 11.4877 2.81215 9.56372V9.51472C3.35782 9.80884 3.99239 9.99266 4.66493 10.0171C3.56087 9.30634 2.83754 8.09312 2.83754 6.72056C2.83754 5.98528 3.04055 5.31126 3.3959 4.72302C5.41369 7.12498 8.44671 8.69358 11.8477 8.86518C11.7843 8.57106 11.7462 8.26472 11.7462 7.95834C11.7462 5.77694 13.5736 4 15.8452 4C17.0254 4 18.0914 4.47794 18.8401 5.25C19.7665 5.07844 20.6548 4.74754 21.4416 4.29412C21.137 5.21326 20.4898 5.98532 19.6396 6.47548C20.4645 6.38974 21.264 6.1691 22 5.86276C21.4417 6.64704 20.7437 7.34554 19.9442 7.9093Z" fill="#111432"/>
</svg>
