<svg width="89" height="26" viewBox="0 0 89 26" fill="none" xmlns="http://www.w3.org/2000/svg">
<g clip-path="url(#clip0_439_1842)">
<path d="M23.6404 13.098H21.9431L22.9152 10.1373H24.6129C25.0367 10.1373 25.2576 10.5164 25.1042 10.9833L24.6872 12.252C24.5348 12.7184 24.0651 13.098 23.6404 13.098Z" fill="#727272"/>
<path fill-rule="evenodd" clip-rule="evenodd" d="M30.5005 13.0002C30.5005 19.6278 25.1278 25.0005 18.5002 25.0005C11.8727 25.0005 6.5 19.6278 6.5 13.0002C6.5 6.37268 11.8727 1 18.5002 1C25.1278 1 30.5005 6.37268 30.5005 13.0002ZM19.9084 10.7973L17.7678 17.3012L20.5632 17.2997L21.471 14.534H24.67C25.492 14.5293 26.4152 13.9943 27.0215 13.1699C27.2132 12.9109 27.367 12.6259 27.4783 12.3234L27.4956 12.2784C27.5018 12.2616 27.5075 12.2463 27.5128 12.2304L27.9164 11.0015C28.332 9.73128 27.7304 8.69834 26.5743 8.69834H20.2027L20.9394 11.1328L19.9084 10.7973ZM10.2037 17.281C10.2755 17.2916 10.3478 17.2982 10.4203 17.3007L16.0921 17.3012L18.2337 10.7987L16.9726 11.1342L19.3083 8.69978H16.1208L13.7684 15.8632H12.375C12.2842 15.8656 12.1944 15.844 12.1147 15.8004C11.8669 15.6705 11.7792 15.3633 11.8923 15.0177L13.9678 8.69978H11.1494L9.10459 14.9199C9.10459 14.9199 9.06241 15.0565 9.05378 15.0881C8.95121 15.4524 8.91717 15.8263 8.99914 16.1987C9.01534 16.2725 9.03664 16.345 9.06289 16.4159C9.11369 16.5552 9.18598 16.6857 9.27714 16.8027C9.42813 16.9949 9.62752 17.1094 9.85232 17.1943C9.96544 17.2375 10.0834 17.2666 10.2037 17.281Z" fill="#727272"/>
</g>
<path d="M39.9766 17.2051C40.6875 17.2051 41.2969 17.0742 41.8047 16.8125C42.3164 16.5508 42.709 16.1875 42.9824 15.7227C43.2598 15.2539 43.3984 14.709 43.3984 14.0879V8.54492H42.0801V13.9883C42.0801 14.5977 41.8984 15.0918 41.5352 15.4707C41.1719 15.8496 40.6523 16.0391 39.9766 16.0391C39.3086 16.0391 38.7891 15.8496 38.418 15.4707C38.0508 15.0918 37.8672 14.5977 37.8672 13.9883V8.54492H36.5488V14.0879C36.5488 14.709 36.6875 15.2539 36.9648 15.7227C37.2422 16.1875 37.6367 16.5508 38.1484 16.8125C38.6602 17.0742 39.2695 17.2051 39.9766 17.2051ZM45.3672 19.1211H46.6387V15.9922H46.7383C46.8516 16.2227 47.0059 16.4199 47.2012 16.584C47.3965 16.748 47.6211 16.877 47.875 16.9707C48.1289 17.0605 48.4023 17.1055 48.6953 17.1055C49.2344 17.1055 49.7012 16.9727 50.0957 16.707C50.4902 16.4375 50.7949 16.0586 51.0098 15.5703C51.2246 15.0781 51.332 14.4961 51.332 13.8242V13.8125C51.332 13.1445 51.2227 12.5664 51.0039 12.0781C50.7891 11.5859 50.4844 11.2051 50.0898 10.9355C49.6953 10.6621 49.2305 10.5254 48.6953 10.5254C48.3984 10.5254 48.125 10.5703 47.875 10.6602C47.625 10.75 47.4023 10.877 47.207 11.041C47.0156 11.2051 46.8594 11.4043 46.7383 11.6387H46.6387V10.6367H45.3672V19.1211ZM48.332 16.0156C47.9805 16.0156 47.6758 15.9277 47.418 15.752C47.1602 15.5723 46.9629 15.3184 46.8262 14.9902C46.6895 14.6621 46.6211 14.2734 46.6211 13.8242V13.8125C46.6211 13.3555 46.6895 12.9648 46.8262 12.6406C46.9629 12.3125 47.1602 12.0605 47.418 11.8848C47.6758 11.7051 47.9805 11.6152 48.332 11.6152C48.6875 11.6152 48.9922 11.7031 49.2461 11.8789C49.5 12.0547 49.6934 12.3066 49.8262 12.6348C49.9629 12.9629 50.0312 13.3555 50.0312 13.8125V13.8242C50.0312 14.2773 49.9629 14.668 49.8262 14.9961C49.6934 15.3242 49.5 15.5762 49.2461 15.752C48.9922 15.9277 48.6875 16.0156 48.332 16.0156ZM56.2422 17.1055C56.7773 17.1055 57.2422 16.9727 57.6367 16.707C58.0312 16.4375 58.3359 16.0566 58.5508 15.5645C58.7695 15.0723 58.8789 14.4922 58.8789 13.8242V13.8125C58.8789 13.1406 58.7715 12.5586 58.5566 12.0664C58.3418 11.5742 58.0371 11.1953 57.6426 10.9297C57.248 10.6602 56.7812 10.5254 56.2422 10.5254C55.8047 10.5254 55.4102 10.627 55.0586 10.8301C54.7109 11.0293 54.4531 11.3008 54.2852 11.6445H54.1855V8.14062H52.9141V17H54.1855V15.998H54.2852C54.4727 16.3457 54.7344 16.6172 55.0703 16.8125C55.4062 17.0078 55.7969 17.1055 56.2422 17.1055ZM55.8789 16.0156C55.5273 16.0156 55.2227 15.9277 54.9648 15.752C54.707 15.5762 54.5098 15.3242 54.373 14.9961C54.2363 14.6641 54.168 14.2734 54.168 13.8242V13.8125C54.168 13.3594 54.2363 12.9688 54.373 12.6406C54.5098 12.3125 54.707 12.0605 54.9648 11.8848C55.2227 11.7051 55.5273 11.6152 55.8789 11.6152C56.2344 11.6152 56.5391 11.7051 56.793 11.8848C57.0469 12.0605 57.2402 12.3125 57.373 12.6406C57.5098 12.9648 57.5781 13.3555 57.5781 13.8125V13.8242C57.5781 14.2773 57.5098 14.668 57.373 14.9961C57.2402 15.3242 57.0469 15.5762 56.793 15.752C56.5391 15.9277 56.2344 16.0156 55.8789 16.0156ZM60.4082 17H61.6855V10.6367H60.4082V17ZM61.0527 9.5C61.2715 9.5 61.459 9.42188 61.6152 9.26562C61.7715 9.10938 61.8496 8.92188 61.8496 8.70312C61.8496 8.48438 61.7715 8.29883 61.6152 8.14648C61.459 7.99023 61.2715 7.91211 61.0527 7.91211C60.834 7.91211 60.6465 7.99023 60.4902 8.14648C60.334 8.29883 60.2559 8.48438 60.2559 8.70312C60.2559 8.92188 60.334 9.10938 60.4902 9.26562C60.6465 9.42188 60.834 9.5 61.0527 9.5ZM65.9336 17.041C66.0586 17.041 66.1797 17.0332 66.2969 17.0176C66.4141 17.0059 66.5234 16.9922 66.625 16.9766V15.957C66.5352 15.9648 66.4551 15.9707 66.3848 15.9746C66.3184 15.9785 66.2383 15.9805 66.1445 15.9805C65.8281 15.9805 65.6016 15.9062 65.4648 15.7578C65.3281 15.6055 65.2598 15.3574 65.2598 15.0137V11.6387H66.625V10.6367H65.2598V9.03125H63.959V10.6367H62.9629V11.6387H63.959V15.3242C63.959 15.9336 64.1133 16.373 64.4219 16.6426C64.7344 16.9082 65.2383 17.041 65.9336 17.041Z" fill="#727272"/>
<defs>
<clipPath id="clip0_439_1842">
<rect width="24" height="24" fill="white" transform="translate(6.5 1)"/>
</clipPath>
</defs>
</svg>
