<svg width="91" height="26" viewBox="0 0 91 26" fill="none" xmlns="http://www.w3.org/2000/svg">
<g clip-path="url(#clip0_439_1842)">
<path d="M29.6404 13.098H27.9431L28.9152 10.1373H30.6129C31.0367 10.1373 31.2576 10.5164 31.1042 10.9833L30.6872 12.252C30.5348 12.7184 30.0651 13.098 29.6404 13.098Z" fill="#727272"/>
<path fill-rule="evenodd" clip-rule="evenodd" d="M36.5005 13.0002C36.5005 19.6278 31.1278 25.0005 24.5002 25.0005C17.8727 25.0005 12.5 19.6278 12.5 13.0002C12.5 6.37268 17.8727 1 24.5002 1C31.1278 1 36.5005 6.37268 36.5005 13.0002ZM25.9084 10.7973L23.7678 17.3012L26.5632 17.2997L27.471 14.534H30.67C31.492 14.5293 32.4152 13.9943 33.0215 13.1699C33.2132 12.9109 33.367 12.6259 33.4783 12.3234L33.4956 12.2784C33.5018 12.2616 33.5075 12.2463 33.5128 12.2304L33.9164 11.0015C34.332 9.73128 33.7304 8.69834 32.5743 8.69834H26.2027L26.9394 11.1328L25.9084 10.7973ZM16.2037 17.281C16.2755 17.2916 16.3478 17.2982 16.4203 17.3007L22.0921 17.3012L24.2337 10.7987L22.9726 11.1342L25.3083 8.69978H22.1208L19.7684 15.8632H18.375C18.2842 15.8656 18.1944 15.844 18.1147 15.8004C17.8669 15.6705 17.7792 15.3633 17.8923 15.0177L19.9678 8.69978H17.1494L15.1046 14.9199C15.1046 14.9199 15.0624 15.0565 15.0538 15.0881C14.9512 15.4524 14.9172 15.8263 14.9991 16.1987C15.0153 16.2725 15.0366 16.345 15.0629 16.4159C15.1137 16.5552 15.186 16.6857 15.2771 16.8027C15.4281 16.9949 15.6275 17.1094 15.8523 17.1943C15.9654 17.2375 16.0834 17.2666 16.2037 17.281Z" fill="#727272"/>
</g>
<path d="M45.9766 17.2051C46.6875 17.2051 47.2969 17.0742 47.8047 16.8125C48.3164 16.5508 48.709 16.1875 48.9824 15.7227C49.2598 15.2539 49.3984 14.709 49.3984 14.0879V8.54492H48.0801V13.9883C48.0801 14.5977 47.8984 15.0918 47.5352 15.4707C47.1719 15.8496 46.6523 16.0391 45.9766 16.0391C45.3086 16.0391 44.7891 15.8496 44.418 15.4707C44.0508 15.0918 43.8672 14.5977 43.8672 13.9883V8.54492H42.5488V14.0879C42.5488 14.709 42.6875 15.2539 42.9648 15.7227C43.2422 16.1875 43.6367 16.5508 44.1484 16.8125C44.6602 17.0742 45.2695 17.2051 45.9766 17.2051ZM51.3672 19.1211H52.6387V15.9922H52.7383C52.8516 16.2227 53.0059 16.4199 53.2012 16.584C53.3965 16.748 53.6211 16.877 53.875 16.9707C54.1289 17.0605 54.4023 17.1055 54.6953 17.1055C55.2344 17.1055 55.7012 16.9727 56.0957 16.707C56.4902 16.4375 56.7949 16.0586 57.0098 15.5703C57.2246 15.0781 57.332 14.4961 57.332 13.8242V13.8125C57.332 13.1445 57.2227 12.5664 57.0039 12.0781C56.7891 11.5859 56.4844 11.2051 56.0898 10.9355C55.6953 10.6621 55.2305 10.5254 54.6953 10.5254C54.3984 10.5254 54.125 10.5703 53.875 10.6602C53.625 10.75 53.4023 10.877 53.207 11.041C53.0156 11.2051 52.8594 11.4043 52.7383 11.6387H52.6387V10.6367H51.3672V19.1211ZM54.332 16.0156C53.9805 16.0156 53.6758 15.9277 53.418 15.752C53.1602 15.5723 52.9629 15.3184 52.8262 14.9902C52.6895 14.6621 52.6211 14.2734 52.6211 13.8242V13.8125C52.6211 13.3555 52.6895 12.9648 52.8262 12.6406C52.9629 12.3125 53.1602 12.0605 53.418 11.8848C53.6758 11.7051 53.9805 11.6152 54.332 11.6152C54.6875 11.6152 54.9922 11.7031 55.2461 11.8789C55.5 12.0547 55.6934 12.3066 55.8262 12.6348C55.9629 12.9629 56.0312 13.3555 56.0312 13.8125V13.8242C56.0312 14.2773 55.9629 14.668 55.8262 14.9961C55.6934 15.3242 55.5 15.5762 55.2461 15.752C54.9922 15.9277 54.6875 16.0156 54.332 16.0156ZM62.2422 17.1055C62.7773 17.1055 63.2422 16.9727 63.6367 16.707C64.0312 16.4375 64.3359 16.0566 64.5508 15.5645C64.7695 15.0723 64.8789 14.4922 64.8789 13.8242V13.8125C64.8789 13.1406 64.7715 12.5586 64.5566 12.0664C64.3418 11.5742 64.0371 11.1953 63.6426 10.9297C63.248 10.6602 62.7812 10.5254 62.2422 10.5254C61.8047 10.5254 61.4102 10.627 61.0586 10.8301C60.7109 11.0293 60.4531 11.3008 60.2852 11.6445H60.1855V8.14062H58.9141V17H60.1855V15.998H60.2852C60.4727 16.3457 60.7344 16.6172 61.0703 16.8125C61.4062 17.0078 61.7969 17.1055 62.2422 17.1055ZM61.8789 16.0156C61.5273 16.0156 61.2227 15.9277 60.9648 15.752C60.707 15.5762 60.5098 15.3242 60.373 14.9961C60.2363 14.6641 60.168 14.2734 60.168 13.8242V13.8125C60.168 13.3594 60.2363 12.9688 60.373 12.6406C60.5098 12.3125 60.707 12.0605 60.9648 11.8848C61.2227 11.7051 61.5273 11.6152 61.8789 11.6152C62.2344 11.6152 62.5391 11.7051 62.793 11.8848C63.0469 12.0605 63.2402 12.3125 63.373 12.6406C63.5098 12.9648 63.5781 13.3555 63.5781 13.8125V13.8242C63.5781 14.2773 63.5098 14.668 63.373 14.9961C63.2402 15.3242 63.0469 15.5762 62.793 15.752C62.5391 15.9277 62.2344 16.0156 61.8789 16.0156ZM66.4082 17H67.6855V10.6367H66.4082V17ZM67.0527 9.5C67.2715 9.5 67.459 9.42188 67.6152 9.26562C67.7715 9.10938 67.8496 8.92188 67.8496 8.70312C67.8496 8.48438 67.7715 8.29883 67.6152 8.14648C67.459 7.99023 67.2715 7.91211 67.0527 7.91211C66.834 7.91211 66.6465 7.99023 66.4902 8.14648C66.334 8.29883 66.2559 8.48438 66.2559 8.70312C66.2559 8.92188 66.334 9.10938 66.4902 9.26562C66.6465 9.42188 66.834 9.5 67.0527 9.5ZM71.9336 17.041C72.0586 17.041 72.1797 17.0332 72.2969 17.0176C72.4141 17.0059 72.5234 16.9922 72.625 16.9766V15.957C72.5352 15.9648 72.4551 15.9707 72.3848 15.9746C72.3184 15.9785 72.2383 15.9805 72.1445 15.9805C71.8281 15.9805 71.6016 15.9062 71.4648 15.7578C71.3281 15.6055 71.2598 15.3574 71.2598 15.0137V11.6387H72.625V10.6367H71.2598V9.03125H69.959V10.6367H68.9629V11.6387H69.959V15.3242C69.959 15.9336 70.1133 16.373 70.4219 16.6426C70.7344 16.9082 71.2383 17.041 71.9336 17.041Z" fill="#727272"/>
<defs>
<clipPath id="clip0_439_1842">
<rect width="24" height="24" fill="white" transform="translate(12.5 1)"/>
</clipPath>
</defs>
</svg>
