<svg width="91" height="26" viewBox="0 0 91 26" fill="none" xmlns="http://www.w3.org/2000/svg">
<g clip-path="url(#clip0_248_7287)">
<path fill-rule="evenodd" clip-rule="evenodd" d="M18.5002 25.0005C25.1278 25.0005 30.5005 19.6278 30.5005 13.0002C30.5005 6.37269 25.1278 1 18.5002 1C11.8727 1 6.5 6.37269 6.5 13.0002C6.5 19.6278 11.8727 25.0005 18.5002 25.0005ZM18.5002 21.2504C22.4117 21.2504 25.6874 18.5284 26.5364 14.8753H22.5923C21.8813 16.4244 20.3164 17.5003 18.5002 17.5003C16.0149 17.5003 14.0001 15.4856 14.0001 13.0002C14.0001 10.5149 16.0149 8.50014 18.5002 8.50014C20.3888 8.50014 22.0056 9.6635 22.6732 11.3127H26.5776C25.7988 7.56562 22.4783 4.75007 18.5002 4.75007C13.9438 4.75007 10.2501 8.44379 10.2501 13.0002C10.2501 17.5567 13.9438 21.2504 18.5002 21.2504Z" fill="#1C68F3"/>
</g>
<path d="M40.0293 17.2051C40.6621 17.2051 41.2266 17.0938 41.7227 16.8711C42.2188 16.6445 42.625 16.3281 42.9414 15.9219C43.2578 15.5156 43.457 15.041 43.5391 14.498L43.5449 14.4688H42.2324L42.2207 14.4922C42.1465 14.8086 42.0078 15.084 41.8047 15.3184C41.6016 15.5488 41.3477 15.7266 41.043 15.8516C40.7422 15.9766 40.4062 16.0391 40.0352 16.0391C39.5273 16.0391 39.0879 15.9062 38.7168 15.6406C38.3496 15.375 38.0645 14.998 37.8613 14.5098C37.6621 14.0215 37.5625 13.4453 37.5625 12.7812V12.7695C37.5625 12.0977 37.6621 11.5195 37.8613 11.0352C38.0645 10.5469 38.3496 10.1699 38.7168 9.9043C39.0879 9.63867 39.5254 9.50586 40.0293 9.50586C40.4004 9.50586 40.7363 9.57617 41.0371 9.7168C41.3379 9.85742 41.5918 10.0547 41.7988 10.3086C42.0059 10.5625 42.1484 10.8633 42.2266 11.2109L42.2324 11.2344H43.5391V11.1992C43.4688 10.6406 43.2715 10.1465 42.9473 9.7168C42.627 9.28711 42.2148 8.95117 41.7109 8.70898C41.2109 8.46289 40.6504 8.33984 40.0293 8.33984C39.2441 8.33984 38.5664 8.51953 37.9961 8.87891C37.4258 9.23828 36.9863 9.74805 36.6777 10.4082C36.3691 11.0684 36.2148 11.8555 36.2148 12.7695V12.7812C36.2148 13.6914 36.3691 14.4766 36.6777 15.1367C36.9863 15.7969 37.4258 16.3066 37.9961 16.666C38.5703 17.0254 39.248 17.2051 40.0293 17.2051ZM47.8164 17.123C48.4414 17.123 48.9766 16.9902 49.4219 16.7246C49.8711 16.459 50.2168 16.0801 50.459 15.5879C50.7051 15.0918 50.8281 14.5039 50.8281 13.8242V13.8125C50.8281 13.1289 50.7051 12.541 50.459 12.0488C50.2168 11.5527 49.8711 11.1738 49.4219 10.9121C48.9727 10.6465 48.4375 10.5137 47.8164 10.5137C47.1992 10.5137 46.6641 10.6465 46.2109 10.9121C45.7617 11.1777 45.4141 11.5566 45.168 12.0488C44.9258 12.541 44.8047 13.1289 44.8047 13.8125V13.8242C44.8047 14.5039 44.9258 15.0918 45.168 15.5879C45.4102 16.0801 45.7559 16.459 46.2051 16.7246C46.6582 16.9902 47.1953 17.123 47.8164 17.123ZM47.8164 16.0566C47.4531 16.0566 47.1445 15.9688 46.8906 15.793C46.6367 15.6133 46.4414 15.3574 46.3047 15.0254C46.1719 14.6934 46.1055 14.293 46.1055 13.8242V13.8125C46.1055 13.3398 46.1719 12.9375 46.3047 12.6055C46.4414 12.2734 46.6367 12.0195 46.8906 11.8438C47.1445 11.6641 47.4531 11.5742 47.8164 11.5742C48.1797 11.5742 48.4883 11.6641 48.7422 11.8438C48.9961 12.0195 49.1895 12.2734 49.3223 12.6055C49.4551 12.9375 49.5215 13.3398 49.5215 13.8125V13.8242C49.5215 14.293 49.4551 14.6934 49.3223 15.0254C49.1895 15.3574 48.9961 15.6133 48.7422 15.793C48.4883 15.9688 48.1797 16.0566 47.8164 16.0566ZM52.3574 17H53.6348V10.6367H52.3574V17ZM53.002 9.5C53.2207 9.5 53.4082 9.42188 53.5645 9.26562C53.7207 9.10938 53.7988 8.92188 53.7988 8.70312C53.7988 8.48438 53.7207 8.29883 53.5645 8.14648C53.4082 7.99023 53.2207 7.91211 53.002 7.91211C52.7832 7.91211 52.5957 7.99023 52.4395 8.14648C52.2832 8.29883 52.2051 8.48438 52.2051 8.70312C52.2051 8.92188 52.2832 9.10938 52.4395 9.26562C52.5957 9.42188 52.7832 9.5 53.002 9.5ZM55.4805 17H56.752V13.2676C56.752 12.9238 56.8125 12.6289 56.9336 12.3828C57.0586 12.1328 57.2344 11.9414 57.4609 11.8086C57.6875 11.6719 57.9551 11.6035 58.2637 11.6035C58.7324 11.6035 59.0762 11.7344 59.2949 11.9961C59.5176 12.2539 59.6289 12.6484 59.6289 13.1797V17H60.9062V12.8809C60.9062 12.123 60.7168 11.5391 60.3379 11.1289C59.959 10.7188 59.4121 10.5137 58.6973 10.5137C58.2324 10.5137 57.8477 10.6094 57.543 10.8008C57.2383 10.9922 57.0078 11.2578 56.8516 11.5977H56.752V10.6367H55.4805V17ZM66.0625 17.1055C66.5977 17.1055 67.0625 16.9727 67.457 16.707C67.8516 16.4375 68.1562 16.0566 68.3711 15.5645C68.5898 15.0723 68.6992 14.4922 68.6992 13.8242V13.8125C68.6992 13.1406 68.5918 12.5586 68.377 12.0664C68.1621 11.5742 67.8574 11.1953 67.4629 10.9297C67.0684 10.6602 66.6016 10.5254 66.0625 10.5254C65.625 10.5254 65.2305 10.627 64.8789 10.8301C64.5312 11.0293 64.2734 11.3008 64.1055 11.6445H64.0059V8.14062H62.7344V17H64.0059V15.998H64.1055C64.293 16.3457 64.5547 16.6172 64.8906 16.8125C65.2266 17.0078 65.6172 17.1055 66.0625 17.1055ZM65.6992 16.0156C65.3477 16.0156 65.043 15.9277 64.7852 15.752C64.5273 15.5762 64.3301 15.3242 64.1934 14.9961C64.0566 14.6641 63.9883 14.2734 63.9883 13.8242V13.8125C63.9883 13.3594 64.0566 12.9688 64.1934 12.6406C64.3301 12.3125 64.5273 12.0605 64.7852 11.8848C65.043 11.7051 65.3477 11.6152 65.6992 11.6152C66.0547 11.6152 66.3594 11.7051 66.6133 11.8848C66.8672 12.0605 67.0605 12.3125 67.1934 12.6406C67.3301 12.9648 67.3984 13.3555 67.3984 13.8125V13.8242C67.3984 14.2773 67.3301 14.668 67.1934 14.9961C67.0605 15.3242 66.8672 15.5762 66.6133 15.752C66.3594 15.9277 66.0547 16.0156 65.6992 16.0156ZM71.957 17.1055C72.2383 17.1055 72.498 17.0664 72.7363 16.9883C72.9746 16.9102 73.1875 16.7969 73.375 16.6484C73.5625 16.4961 73.7188 16.3125 73.8438 16.0977H73.9375V17H75.2031V12.6465C75.2031 12.2012 75.1055 11.8203 74.9102 11.5039C74.7188 11.1836 74.4355 10.9395 74.0605 10.7715C73.6895 10.5996 73.2363 10.5137 72.7012 10.5137C72.2207 10.5137 71.793 10.5859 71.418 10.7305C71.0469 10.875 70.7461 11.0781 70.5156 11.3398C70.2891 11.5977 70.1504 11.9023 70.0996 12.2539L70.0938 12.2949H71.3184L71.3301 12.2773C71.4043 12.0508 71.5527 11.875 71.7754 11.75C72.002 11.625 72.293 11.5625 72.6484 11.5625C73.0742 11.5625 73.3945 11.6562 73.6094 11.8438C73.8281 12.0273 73.9375 12.2949 73.9375 12.6465V14.6504C73.9375 14.9238 73.8672 15.1699 73.7266 15.3887C73.5859 15.6035 73.3906 15.7754 73.1406 15.9043C72.8945 16.0293 72.6133 16.0918 72.2969 16.0918C71.957 16.0918 71.6758 16.0098 71.4531 15.8457C71.2305 15.6777 71.1191 15.4492 71.1191 15.1602V15.1484C71.1191 14.8633 71.2227 14.6426 71.4297 14.4863C71.6367 14.3262 71.959 14.2324 72.3965 14.2051L74.5703 14.0645V13.168L72.2207 13.3086C71.4629 13.3555 70.877 13.541 70.4629 13.8652C70.0527 14.1855 69.8477 14.6309 69.8477 15.2012V15.2129C69.8477 15.5957 69.9395 15.9297 70.123 16.2148C70.3066 16.5 70.5566 16.7207 70.873 16.877C71.1934 17.0293 71.5547 17.1055 71.957 17.1055ZM79.3105 17.123C79.8184 17.123 80.2695 17.041 80.6641 16.877C81.0625 16.709 81.377 16.4766 81.6074 16.1797C81.8379 15.8789 81.9531 15.5332 81.9531 15.1426V15.1309C81.9531 14.6699 81.8027 14.3027 81.502 14.0293C81.2051 13.7559 80.752 13.5469 80.1426 13.4023L79.1289 13.1738C78.7734 13.0879 78.5176 12.9805 78.3613 12.8516C78.2051 12.7227 78.127 12.5586 78.127 12.3594V12.3477C78.127 12.1758 78.1777 12.0273 78.2793 11.9023C78.3848 11.7734 78.5273 11.6738 78.707 11.6035C78.8867 11.5293 79.0918 11.4922 79.3223 11.4922C79.6816 11.4922 79.9707 11.5664 80.1895 11.7148C80.4121 11.8633 80.5527 12.0488 80.6113 12.2715V12.2832H81.8301V12.2773C81.791 11.9297 81.666 11.625 81.4551 11.3633C81.2441 11.0977 80.957 10.8906 80.5938 10.7422C80.2344 10.5898 79.8125 10.5137 79.3281 10.5137C78.8477 10.5137 78.4199 10.5957 78.0449 10.7598C77.6738 10.9199 77.3828 11.1445 77.1719 11.4336C76.9609 11.7188 76.8555 12.0469 76.8555 12.418V12.4238C76.8555 12.8887 76.998 13.2637 77.2832 13.5488C77.5723 13.8301 78.0156 14.0391 78.6133 14.1758L79.6328 14.4102C80 14.4961 80.2637 14.6074 80.4238 14.7441C80.584 14.8809 80.6641 15.0488 80.6641 15.248V15.2598C80.6641 15.4316 80.6074 15.584 80.4941 15.7168C80.3809 15.8496 80.2246 15.9531 80.0254 16.0273C79.8301 16.1016 79.6016 16.1387 79.3398 16.1387C78.9609 16.1387 78.6562 16.0645 78.4258 15.916C78.1953 15.7676 78.0391 15.5742 77.957 15.3359V15.3242H76.6797V15.3359C76.7188 15.6914 76.8496 16.0039 77.0723 16.2734C77.2949 16.5391 77.5957 16.748 77.9746 16.9004C78.3535 17.0488 78.7988 17.123 79.3105 17.123ZM86.1367 17.123C86.5469 17.123 86.9082 17.0703 87.2207 16.9648C87.5371 16.8594 87.8066 16.7207 88.0293 16.5488C88.2559 16.377 88.4375 16.1875 88.5742 15.9805C88.7109 15.7695 88.8066 15.5586 88.8613 15.3477L88.873 15.2949H87.6426L87.6191 15.3418C87.5723 15.4512 87.4844 15.5625 87.3555 15.6758C87.2305 15.7891 87.0684 15.8848 86.8691 15.9629C86.6738 16.0371 86.4395 16.0742 86.166 16.0742C85.8105 16.0742 85.502 15.9961 85.2402 15.8398C84.9824 15.6836 84.7832 15.457 84.6426 15.1602C84.502 14.8633 84.4316 14.5059 84.4316 14.0879V13.5781C84.4316 13.1406 84.502 12.7715 84.6426 12.4707C84.7871 12.1699 84.9824 11.9434 85.2285 11.791C85.4785 11.6348 85.7617 11.5566 86.0781 11.5566C86.3945 11.5566 86.6738 11.6309 86.916 11.7793C87.1582 11.9277 87.3477 12.1523 87.4844 12.4531C87.625 12.75 87.6953 13.125 87.6953 13.5781V14.0879L88.3047 13.2441H83.793V14.1523H88.9375V13.707C88.9375 13.0664 88.8223 12.5078 88.5918 12.0312C88.3613 11.5508 88.0312 11.1777 87.6016 10.9121C87.1758 10.6465 86.666 10.5137 86.0723 10.5137C85.4824 10.5137 84.9668 10.6523 84.5254 10.9297C84.0879 11.207 83.748 11.5938 83.5059 12.0898C83.2676 12.5859 83.1484 13.166 83.1484 13.8301V13.8359C83.1484 14.5078 83.2676 15.0898 83.5059 15.582C83.748 16.0742 84.0918 16.4551 84.5371 16.7246C84.9824 16.9902 85.5156 17.123 86.1367 17.123Z" fill="#111432"/>
<defs>
<clipPath id="clip0_248_7287">
<rect width="24" height="24" fill="white" transform="translate(6.5 1)"/>
</clipPath>
</defs>
</svg>
