<svg width="71" height="26" viewBox="0 0 71 26" fill="none" xmlns="http://www.w3.org/2000/svg">
<g clip-path="url(#clip0_298_9105)">
<path d="M9.40179 12.811L9.19395 12.6018C9.03659 12.4446 8.76627 12.5559 8.76627 12.7788V15.7666C8.76627 15.9046 8.87949 16.0169 9.01782 16.0169H12.0064C12.2293 16.0169 12.3414 15.747 12.183 15.5901C12.0853 15.4924 12.0853 15.3342 12.183 15.2367L15.3617 12.0482C15.4596 11.951 15.4596 11.7929 15.3617 11.6947L15.0721 11.4062C14.9147 11.249 15.0269 10.9791 15.2491 10.9791H18.2359C18.374 10.9791 18.487 11.0912 18.487 11.2293V14.217C18.487 14.4398 18.2162 14.5513 18.0585 14.3939L17.8571 14.1927C17.7588 14.0923 17.6006 14.0923 17.5044 14.1927L12.1451 19.5494C12.0478 19.6469 11.8899 19.6469 11.7913 19.5494L5.23462 12.9927C5.13605 12.8941 5.13605 12.7357 5.23462 12.6378L14.3113 3.56147C14.4088 3.46376 14.4088 3.30434 14.3113 3.20707L12.177 1.07296C12.0793 0.975681 11.9211 0.975681 11.8229 1.07296L0.07247 12.8238C-0.0248077 12.9215 -0.0248077 13.081 0.07247 13.1782L11.8217 24.9274C11.9194 25.0245 12.0789 25.0245 12.1762 24.9274L23.9249 13.1782C24.022 13.0805 24.022 12.922 23.9249 12.8246L17.0127 5.91233C16.916 5.81505 16.757 5.81505 16.659 5.91233L9.75747 12.8111C9.65891 12.9096 9.50035 12.9096 9.40179 12.8111V12.811Z" fill="#E64E62"/>
</g>
<path d="M33.6289 17.2051C34.3672 17.2051 35.0098 17.0605 35.5566 16.7715C36.1035 16.4785 36.5273 16.0684 36.8281 15.541C37.1289 15.0098 37.2793 14.3867 37.2793 13.6719V12.623H33.8047V13.6836H35.9785L35.9727 13.8711C35.9688 14.3047 35.8691 14.6836 35.6738 15.0078C35.4785 15.332 35.2051 15.5859 34.8535 15.7695C34.5059 15.9492 34.1016 16.0391 33.6406 16.0391C33.1133 16.0391 32.6562 15.9082 32.2695 15.6465C31.8828 15.3809 31.584 15.0039 31.373 14.5156C31.1621 14.0234 31.0566 13.4414 31.0566 12.7695V12.7578C31.0566 12.0938 31.1602 11.5195 31.3672 11.0352C31.5781 10.5469 31.875 10.1699 32.2578 9.9043C32.6406 9.63867 33.0918 9.50586 33.6113 9.50586C34.1895 9.50586 34.6738 9.64062 35.0645 9.91016C35.459 10.1797 35.7305 10.5645 35.8789 11.0645L35.8965 11.123H37.2148L37.209 11.0645C37.1074 10.5176 36.8945 10.041 36.5703 9.63477C36.2461 9.22461 35.832 8.90625 35.3281 8.67969C34.8242 8.45312 34.252 8.33984 33.6113 8.33984C32.8262 8.33984 32.1406 8.52148 31.5547 8.88477C30.9688 9.24805 30.5156 9.76172 30.1953 10.4258C29.875 11.0859 29.7148 11.8652 29.7148 12.7637V12.7754C29.7148 13.6777 29.873 14.4629 30.1895 15.1309C30.5098 15.7949 30.9629 16.3066 31.5488 16.666C32.1348 17.0254 32.8281 17.2051 33.6289 17.2051ZM40.6602 17.1055C40.9414 17.1055 41.2012 17.0664 41.4395 16.9883C41.6777 16.9102 41.8906 16.7969 42.0781 16.6484C42.2656 16.4961 42.4219 16.3125 42.5469 16.0977H42.6406V17H43.9062V12.6465C43.9062 12.2012 43.8086 11.8203 43.6133 11.5039C43.4219 11.1836 43.1387 10.9395 42.7637 10.7715C42.3926 10.5996 41.9395 10.5137 41.4043 10.5137C40.9238 10.5137 40.4961 10.5859 40.1211 10.7305C39.75 10.875 39.4492 11.0781 39.2188 11.3398C38.9922 11.5977 38.8535 11.9023 38.8027 12.2539L38.7969 12.2949H40.0215L40.0332 12.2773C40.1074 12.0508 40.2559 11.875 40.4785 11.75C40.7051 11.625 40.9961 11.5625 41.3516 11.5625C41.7773 11.5625 42.0977 11.6562 42.3125 11.8438C42.5312 12.0273 42.6406 12.2949 42.6406 12.6465V14.6504C42.6406 14.9238 42.5703 15.1699 42.4297 15.3887C42.2891 15.6035 42.0938 15.7754 41.8438 15.9043C41.5977 16.0293 41.3164 16.0918 41 16.0918C40.6602 16.0918 40.3789 16.0098 40.1562 15.8457C39.9336 15.6777 39.8223 15.4492 39.8223 15.1602V15.1484C39.8223 14.8633 39.9258 14.6426 40.1328 14.4863C40.3398 14.3262 40.6621 14.2324 41.0996 14.2051L43.2734 14.0645V13.168L40.9238 13.3086C40.166 13.3555 39.5801 13.541 39.166 13.8652C38.7559 14.1855 38.5508 14.6309 38.5508 15.2012V15.2129C38.5508 15.5957 38.6426 15.9297 38.8262 16.2148C39.0098 16.5 39.2598 16.7207 39.5762 16.877C39.8965 17.0293 40.2578 17.1055 40.6602 17.1055ZM48.1016 17.041C48.2266 17.041 48.3477 17.0332 48.4648 17.0176C48.582 17.0059 48.6914 16.9922 48.793 16.9766V15.957C48.7031 15.9648 48.623 15.9707 48.5527 15.9746C48.4863 15.9785 48.4062 15.9805 48.3125 15.9805C47.9961 15.9805 47.7695 15.9062 47.6328 15.7578C47.4961 15.6055 47.4277 15.3574 47.4277 15.0137V11.6387H48.793V10.6367H47.4277V9.03125H46.127V10.6367H45.1309V11.6387H46.127V15.3242C46.127 15.9336 46.2812 16.373 46.5898 16.6426C46.9023 16.9082 47.4062 17.041 48.1016 17.041ZM52.8828 17.123C53.293 17.123 53.6543 17.0703 53.9668 16.9648C54.2832 16.8594 54.5527 16.7207 54.7754 16.5488C55.002 16.377 55.1836 16.1875 55.3203 15.9805C55.457 15.7695 55.5527 15.5586 55.6074 15.3477L55.6191 15.2949H54.3887L54.3652 15.3418C54.3184 15.4512 54.2305 15.5625 54.1016 15.6758C53.9766 15.7891 53.8145 15.8848 53.6152 15.9629C53.4199 16.0371 53.1855 16.0742 52.9121 16.0742C52.5566 16.0742 52.248 15.9961 51.9863 15.8398C51.7285 15.6836 51.5293 15.457 51.3887 15.1602C51.248 14.8633 51.1777 14.5059 51.1777 14.0879V13.5781C51.1777 13.1406 51.248 12.7715 51.3887 12.4707C51.5332 12.1699 51.7285 11.9434 51.9746 11.791C52.2246 11.6348 52.5078 11.5566 52.8242 11.5566C53.1406 11.5566 53.4199 11.6309 53.6621 11.7793C53.9043 11.9277 54.0938 12.1523 54.2305 12.4531C54.3711 12.75 54.4414 13.125 54.4414 13.5781V14.0879L55.0508 13.2441H50.5391V14.1523H55.6836V13.707C55.6836 13.0664 55.5684 12.5078 55.3379 12.0312C55.1074 11.5508 54.7773 11.1777 54.3477 10.9121C53.9219 10.6465 53.4121 10.5137 52.8184 10.5137C52.2285 10.5137 51.7129 10.6523 51.2715 10.9297C50.834 11.207 50.4941 11.5938 50.252 12.0898C50.0137 12.5859 49.8945 13.166 49.8945 13.8301V13.8359C49.8945 14.5078 50.0137 15.0898 50.252 15.582C50.4941 16.0742 50.8379 16.4551 51.2832 16.7246C51.7285 16.9902 52.2617 17.123 52.8828 17.123ZM58.1738 17.0938C58.4199 17.0938 58.625 17.0098 58.7891 16.8418C58.9531 16.6738 59.0352 16.4727 59.0352 16.2383C59.0352 15.9961 58.9531 15.793 58.7891 15.6289C58.625 15.4648 58.4199 15.3828 58.1738 15.3828C57.9316 15.3828 57.7266 15.4648 57.5586 15.6289C57.3945 15.793 57.3125 15.9961 57.3125 16.2383C57.3125 16.4727 57.3945 16.6738 57.5586 16.8418C57.7266 17.0098 57.9316 17.0938 58.1738 17.0938ZM60.998 17H62.2754V10.6367H60.998V17ZM61.6426 9.5C61.8613 9.5 62.0488 9.42188 62.2051 9.26562C62.3613 9.10938 62.4395 8.92188 62.4395 8.70312C62.4395 8.48438 62.3613 8.29883 62.2051 8.14648C62.0488 7.99023 61.8613 7.91211 61.6426 7.91211C61.4238 7.91211 61.2363 7.99023 61.0801 8.14648C60.9238 8.29883 60.8457 8.48438 60.8457 8.70312C60.8457 8.92188 60.9238 9.10938 61.0801 9.26562C61.2363 9.42188 61.4238 9.5 61.6426 9.5ZM66.8164 17.123C67.4414 17.123 67.9766 16.9902 68.4219 16.7246C68.8711 16.459 69.2168 16.0801 69.459 15.5879C69.7051 15.0918 69.8281 14.5039 69.8281 13.8242V13.8125C69.8281 13.1289 69.7051 12.541 69.459 12.0488C69.2168 11.5527 68.8711 11.1738 68.4219 10.9121C67.9727 10.6465 67.4375 10.5137 66.8164 10.5137C66.1992 10.5137 65.6641 10.6465 65.2109 10.9121C64.7617 11.1777 64.4141 11.5566 64.168 12.0488C63.9258 12.541 63.8047 13.1289 63.8047 13.8125V13.8242C63.8047 14.5039 63.9258 15.0918 64.168 15.5879C64.4102 16.0801 64.7559 16.459 65.2051 16.7246C65.6582 16.9902 66.1953 17.123 66.8164 17.123ZM66.8164 16.0566C66.4531 16.0566 66.1445 15.9688 65.8906 15.793C65.6367 15.6133 65.4414 15.3574 65.3047 15.0254C65.1719 14.6934 65.1055 14.293 65.1055 13.8242V13.8125C65.1055 13.3398 65.1719 12.9375 65.3047 12.6055C65.4414 12.2734 65.6367 12.0195 65.8906 11.8438C66.1445 11.6641 66.4531 11.5742 66.8164 11.5742C67.1797 11.5742 67.4883 11.6641 67.7422 11.8438C67.9961 12.0195 68.1895 12.2734 68.3223 12.6055C68.4551 12.9375 68.5215 13.3398 68.5215 13.8125V13.8242C68.5215 14.293 68.4551 14.6934 68.3223 15.0254C68.1895 15.3574 67.9961 15.6133 67.7422 15.793C67.4883 15.9688 67.1797 16.0566 66.8164 16.0566Z" fill="#111432"/>
<defs>
<clipPath id="clip0_298_9105">
<rect width="24" height="24" fill="white" transform="translate(0 1)"/>
</clipPath>
</defs>
</svg>
