<svg width="88" height="26" viewBox="0 0 88 26" fill="none" xmlns="http://www.w3.org/2000/svg">
<g clip-path="url(#clip0_439_1851)">
<path d="M15.4018 12.811L15.1939 12.6018C15.0366 12.4446 14.7663 12.5559 14.7663 12.7788V15.7666C14.7663 15.9046 14.8795 16.0169 15.0178 16.0169H18.0064C18.2293 16.0169 18.3414 15.747 18.183 15.5901C18.0853 15.4924 18.0853 15.3342 18.183 15.2367L21.3617 12.0482C21.4596 11.951 21.4596 11.7929 21.3617 11.6947L21.0721 11.4062C20.9147 11.249 21.0269 10.9791 21.2491 10.9791H24.2359C24.374 10.9791 24.487 11.0912 24.487 11.2293V14.217C24.487 14.4398 24.2162 14.5513 24.0585 14.3939L23.8571 14.1927C23.7588 14.0923 23.6006 14.0923 23.5044 14.1927L18.1451 19.5494C18.0478 19.6469 17.8899 19.6469 17.7913 19.5494L11.2346 12.9927C11.1361 12.8941 11.1361 12.7357 11.2346 12.6378L20.3113 3.56147C20.4088 3.46376 20.4088 3.30434 20.3113 3.20707L18.177 1.07296C18.0793 0.975681 17.9211 0.975681 17.8229 1.07296L6.07247 12.8238C5.97519 12.9215 5.97519 13.081 6.07247 13.1782L17.8217 24.9274C17.9194 25.0245 18.0789 25.0245 18.1762 24.9274L29.9249 13.1782C30.022 13.0805 30.022 12.922 29.9249 12.8246L23.0127 5.91233C22.916 5.81505 22.757 5.81505 22.659 5.91233L15.7575 12.8111C15.6589 12.9096 15.5003 12.9096 15.4018 12.8111V12.811Z" fill="#727272"/>
</g>
<path d="M39.6289 17.2051C40.3672 17.2051 41.0098 17.0605 41.5566 16.7715C42.1035 16.4785 42.5273 16.0684 42.8281 15.541C43.1289 15.0098 43.2793 14.3867 43.2793 13.6719V12.623H39.8047V13.6836H41.9785L41.9727 13.8711C41.9688 14.3047 41.8691 14.6836 41.6738 15.0078C41.4785 15.332 41.2051 15.5859 40.8535 15.7695C40.5059 15.9492 40.1016 16.0391 39.6406 16.0391C39.1133 16.0391 38.6562 15.9082 38.2695 15.6465C37.8828 15.3809 37.584 15.0039 37.373 14.5156C37.1621 14.0234 37.0566 13.4414 37.0566 12.7695V12.7578C37.0566 12.0938 37.1602 11.5195 37.3672 11.0352C37.5781 10.5469 37.875 10.1699 38.2578 9.9043C38.6406 9.63867 39.0918 9.50586 39.6113 9.50586C40.1895 9.50586 40.6738 9.64062 41.0645 9.91016C41.459 10.1797 41.7305 10.5645 41.8789 11.0645L41.8965 11.123H43.2148L43.209 11.0645C43.1074 10.5176 42.8945 10.041 42.5703 9.63477C42.2461 9.22461 41.832 8.90625 41.3281 8.67969C40.8242 8.45312 40.252 8.33984 39.6113 8.33984C38.8262 8.33984 38.1406 8.52148 37.5547 8.88477C36.9688 9.24805 36.5156 9.76172 36.1953 10.4258C35.875 11.0859 35.7148 11.8652 35.7148 12.7637V12.7754C35.7148 13.6777 35.873 14.4629 36.1895 15.1309C36.5098 15.7949 36.9629 16.3066 37.5488 16.666C38.1348 17.0254 38.8281 17.2051 39.6289 17.2051ZM46.6602 17.1055C46.9414 17.1055 47.2012 17.0664 47.4395 16.9883C47.6777 16.9102 47.8906 16.7969 48.0781 16.6484C48.2656 16.4961 48.4219 16.3125 48.5469 16.0977H48.6406V17H49.9062V12.6465C49.9062 12.2012 49.8086 11.8203 49.6133 11.5039C49.4219 11.1836 49.1387 10.9395 48.7637 10.7715C48.3926 10.5996 47.9395 10.5137 47.4043 10.5137C46.9238 10.5137 46.4961 10.5859 46.1211 10.7305C45.75 10.875 45.4492 11.0781 45.2188 11.3398C44.9922 11.5977 44.8535 11.9023 44.8027 12.2539L44.7969 12.2949H46.0215L46.0332 12.2773C46.1074 12.0508 46.2559 11.875 46.4785 11.75C46.7051 11.625 46.9961 11.5625 47.3516 11.5625C47.7773 11.5625 48.0977 11.6562 48.3125 11.8438C48.5312 12.0273 48.6406 12.2949 48.6406 12.6465V14.6504C48.6406 14.9238 48.5703 15.1699 48.4297 15.3887C48.2891 15.6035 48.0938 15.7754 47.8438 15.9043C47.5977 16.0293 47.3164 16.0918 47 16.0918C46.6602 16.0918 46.3789 16.0098 46.1562 15.8457C45.9336 15.6777 45.8223 15.4492 45.8223 15.1602V15.1484C45.8223 14.8633 45.9258 14.6426 46.1328 14.4863C46.3398 14.3262 46.6621 14.2324 47.0996 14.2051L49.2734 14.0645V13.168L46.9238 13.3086C46.166 13.3555 45.5801 13.541 45.166 13.8652C44.7559 14.1855 44.5508 14.6309 44.5508 15.2012V15.2129C44.5508 15.5957 44.6426 15.9297 44.8262 16.2148C45.0098 16.5 45.2598 16.7207 45.5762 16.877C45.8965 17.0293 46.2578 17.1055 46.6602 17.1055ZM54.1016 17.041C54.2266 17.041 54.3477 17.0332 54.4648 17.0176C54.582 17.0059 54.6914 16.9922 54.793 16.9766V15.957C54.7031 15.9648 54.623 15.9707 54.5527 15.9746C54.4863 15.9785 54.4062 15.9805 54.3125 15.9805C53.9961 15.9805 53.7695 15.9062 53.6328 15.7578C53.4961 15.6055 53.4277 15.3574 53.4277 15.0137V11.6387H54.793V10.6367H53.4277V9.03125H52.127V10.6367H51.1309V11.6387H52.127V15.3242C52.127 15.9336 52.2812 16.373 52.5898 16.6426C52.9023 16.9082 53.4062 17.041 54.1016 17.041ZM58.8828 17.123C59.293 17.123 59.6543 17.0703 59.9668 16.9648C60.2832 16.8594 60.5527 16.7207 60.7754 16.5488C61.002 16.377 61.1836 16.1875 61.3203 15.9805C61.457 15.7695 61.5527 15.5586 61.6074 15.3477L61.6191 15.2949H60.3887L60.3652 15.3418C60.3184 15.4512 60.2305 15.5625 60.1016 15.6758C59.9766 15.7891 59.8145 15.8848 59.6152 15.9629C59.4199 16.0371 59.1855 16.0742 58.9121 16.0742C58.5566 16.0742 58.248 15.9961 57.9863 15.8398C57.7285 15.6836 57.5293 15.457 57.3887 15.1602C57.248 14.8633 57.1777 14.5059 57.1777 14.0879V13.5781C57.1777 13.1406 57.248 12.7715 57.3887 12.4707C57.5332 12.1699 57.7285 11.9434 57.9746 11.791C58.2246 11.6348 58.5078 11.5566 58.8242 11.5566C59.1406 11.5566 59.4199 11.6309 59.6621 11.7793C59.9043 11.9277 60.0938 12.1523 60.2305 12.4531C60.3711 12.75 60.4414 13.125 60.4414 13.5781V14.0879L61.0508 13.2441H56.5391V14.1523H61.6836V13.707C61.6836 13.0664 61.5684 12.5078 61.3379 12.0312C61.1074 11.5508 60.7773 11.1777 60.3477 10.9121C59.9219 10.6465 59.4121 10.5137 58.8184 10.5137C58.2285 10.5137 57.7129 10.6523 57.2715 10.9297C56.834 11.207 56.4941 11.5938 56.252 12.0898C56.0137 12.5859 55.8945 13.166 55.8945 13.8301V13.8359C55.8945 14.5078 56.0137 15.0898 56.252 15.582C56.4941 16.0742 56.8379 16.4551 57.2832 16.7246C57.7285 16.9902 58.2617 17.123 58.8828 17.123ZM64.1738 17.0938C64.4199 17.0938 64.625 17.0098 64.7891 16.8418C64.9531 16.6738 65.0352 16.4727 65.0352 16.2383C65.0352 15.9961 64.9531 15.793 64.7891 15.6289C64.625 15.4648 64.4199 15.3828 64.1738 15.3828C63.9316 15.3828 63.7266 15.4648 63.5586 15.6289C63.3945 15.793 63.3125 15.9961 63.3125 16.2383C63.3125 16.4727 63.3945 16.6738 63.5586 16.8418C63.7266 17.0098 63.9316 17.0938 64.1738 17.0938ZM66.998 17H68.2754V10.6367H66.998V17ZM67.6426 9.5C67.8613 9.5 68.0488 9.42188 68.2051 9.26562C68.3613 9.10938 68.4395 8.92188 68.4395 8.70312C68.4395 8.48438 68.3613 8.29883 68.2051 8.14648C68.0488 7.99023 67.8613 7.91211 67.6426 7.91211C67.4238 7.91211 67.2363 7.99023 67.0801 8.14648C66.9238 8.29883 66.8457 8.48438 66.8457 8.70312C66.8457 8.92188 66.9238 9.10938 67.0801 9.26562C67.2363 9.42188 67.4238 9.5 67.6426 9.5ZM72.8164 17.123C73.4414 17.123 73.9766 16.9902 74.4219 16.7246C74.8711 16.459 75.2168 16.0801 75.459 15.5879C75.7051 15.0918 75.8281 14.5039 75.8281 13.8242V13.8125C75.8281 13.1289 75.7051 12.541 75.459 12.0488C75.2168 11.5527 74.8711 11.1738 74.4219 10.9121C73.9727 10.6465 73.4375 10.5137 72.8164 10.5137C72.1992 10.5137 71.6641 10.6465 71.2109 10.9121C70.7617 11.1777 70.4141 11.5566 70.168 12.0488C69.9258 12.541 69.8047 13.1289 69.8047 13.8125V13.8242C69.8047 14.5039 69.9258 15.0918 70.168 15.5879C70.4102 16.0801 70.7559 16.459 71.2051 16.7246C71.6582 16.9902 72.1953 17.123 72.8164 17.123ZM72.8164 16.0566C72.4531 16.0566 72.1445 15.9688 71.8906 15.793C71.6367 15.6133 71.4414 15.3574 71.3047 15.0254C71.1719 14.6934 71.1055 14.293 71.1055 13.8242V13.8125C71.1055 13.3398 71.1719 12.9375 71.3047 12.6055C71.4414 12.2734 71.6367 12.0195 71.8906 11.8438C72.1445 11.6641 72.4531 11.5742 72.8164 11.5742C73.1797 11.5742 73.4883 11.6641 73.7422 11.8438C73.9961 12.0195 74.1895 12.2734 74.3223 12.6055C74.4551 12.9375 74.5215 13.3398 74.5215 13.8125V13.8242C74.5215 14.293 74.4551 14.6934 74.3223 15.0254C74.1895 15.3574 73.9961 15.6133 73.7422 15.793C73.4883 15.9688 73.1797 16.0566 72.8164 16.0566Z" fill="#727272"/>
<defs>
<clipPath id="clip0_439_1851">
<rect width="24" height="24" fill="white" transform="translate(6 1)"/>
</clipPath>
</defs>
</svg>
