<svg width="89" height="26" viewBox="0 0 89 26" fill="none" xmlns="http://www.w3.org/2000/svg">
<path d="M21.9998 10.6494C21.9733 10.6325 21.937 10.6189 21.9139 10.663C21.8445 11.5001 21.0122 13.2896 19.9552 14.9368C16.3715 20.5155 18.4127 23.2065 19.5621 24.6537C20.2294 25.4908 19.5622 24.6537 21.2269 23.7962C23.2846 22.5151 24.619 20.2985 24.8172 17.838C25.1442 13.8726 22.8255 11.3747 21.9998 10.6494Z" fill="#727272"/>
<path d="M20.0909 8.38206C20.0909 4.93857 18.4559 1.97297 17.2107 1.01042C17.2107 1.01042 17.1149 0.956192 17.1248 1.09515C17.0224 7.74827 13.7095 9.55135 11.8895 11.9781C7.68815 17.5839 11.5923 23.7286 15.5757 24.864C17.7953 25.5012 15.0604 23.7388 14.707 20.0208C14.2743 15.5334 20.0909 12.1035 20.0909 8.38206Z" fill="#727272"/>
<path d="M33.5605 17.7026H34.873V13.9585H39.209V17.7026H40.5273V9.24756H39.209V12.8218H34.873V9.24756H33.5605V17.7026ZM44.6289 17.8257C45.0938 17.8257 45.4844 17.73 45.8008 17.5386C46.1172 17.3472 46.3516 17.0815 46.5039 16.7417H46.5977V17.7026H47.875V11.3394H46.5977V15.0718C46.5977 15.4116 46.5391 15.7065 46.4219 15.9565C46.3047 16.2026 46.1289 16.394 45.8945 16.5308C45.6641 16.6636 45.3809 16.73 45.0449 16.73C44.5762 16.73 44.2383 16.5991 44.0312 16.3374C43.8242 16.0757 43.7207 15.6831 43.7207 15.1597V11.3394H42.4492V15.4585C42.4492 15.9585 42.5293 16.3862 42.6895 16.7417C42.8535 17.0933 43.0977 17.3628 43.4219 17.5503C43.75 17.7339 44.1523 17.8257 44.6289 17.8257ZM52.3984 17.8257C53.0234 17.8257 53.5586 17.6929 54.0039 17.4272C54.4531 17.1616 54.7988 16.7827 55.041 16.2905C55.2871 15.7944 55.4102 15.2065 55.4102 14.5269V14.5151C55.4102 13.8315 55.2871 13.2437 55.041 12.7515C54.7988 12.2554 54.4531 11.8765 54.0039 11.6147C53.5547 11.3491 53.0195 11.2163 52.3984 11.2163C51.7812 11.2163 51.2461 11.3491 50.793 11.6147C50.3438 11.8804 49.9961 12.2593 49.75 12.7515C49.5078 13.2437 49.3867 13.8315 49.3867 14.5151V14.5269C49.3867 15.2065 49.5078 15.7944 49.75 16.2905C49.9922 16.7827 50.3379 17.1616 50.7871 17.4272C51.2402 17.6929 51.7773 17.8257 52.3984 17.8257ZM52.3984 16.7593C52.0352 16.7593 51.7266 16.6714 51.4727 16.4956C51.2188 16.3159 51.0234 16.0601 50.8867 15.728C50.7539 15.396 50.6875 14.9956 50.6875 14.5269V14.5151C50.6875 14.0425 50.7539 13.6401 50.8867 13.3081C51.0234 12.9761 51.2188 12.7222 51.4727 12.5464C51.7266 12.3667 52.0352 12.2769 52.3984 12.2769C52.7617 12.2769 53.0703 12.3667 53.3242 12.5464C53.5781 12.7222 53.7715 12.9761 53.9043 13.3081C54.0371 13.6401 54.1035 14.0425 54.1035 14.5151V14.5269C54.1035 14.9956 54.0371 15.396 53.9043 15.728C53.7715 16.0601 53.5781 16.3159 53.3242 16.4956C53.0703 16.6714 52.7617 16.7593 52.3984 16.7593ZM60.3086 17.8081C60.8438 17.8081 61.3086 17.6753 61.7031 17.4097C62.0977 17.1401 62.4023 16.7593 62.6172 16.2671C62.8359 15.7749 62.9453 15.1948 62.9453 14.5269V14.5151C62.9453 13.8433 62.8379 13.2612 62.623 12.769C62.4082 12.2769 62.1035 11.8979 61.709 11.6323C61.3145 11.3628 60.8477 11.228 60.3086 11.228C59.8711 11.228 59.4766 11.3296 59.125 11.5327C58.7773 11.7319 58.5195 12.0034 58.3516 12.3472H58.252V8.84326H56.9805V17.7026H58.252V16.7007H58.3516C58.5391 17.0483 58.8008 17.3198 59.1367 17.5151C59.4727 17.7104 59.8633 17.8081 60.3086 17.8081ZM59.9453 16.7183C59.5938 16.7183 59.2891 16.6304 59.0312 16.4546C58.7734 16.2788 58.5762 16.0269 58.4395 15.6987C58.3027 15.3667 58.2344 14.9761 58.2344 14.5269V14.5151C58.2344 14.062 58.3027 13.6714 58.4395 13.3433C58.5762 13.0151 58.7734 12.7632 59.0312 12.5874C59.2891 12.4077 59.5938 12.3179 59.9453 12.3179C60.3008 12.3179 60.6055 12.4077 60.8594 12.5874C61.1133 12.7632 61.3066 13.0151 61.4395 13.3433C61.5762 13.6675 61.6445 14.0581 61.6445 14.5151V14.5269C61.6445 14.98 61.5762 15.3706 61.4395 15.6987C61.3066 16.0269 61.1133 16.2788 60.8594 16.4546C60.6055 16.6304 60.3008 16.7183 59.9453 16.7183ZM64.4746 17.7026H65.752V11.3394H64.4746V17.7026ZM65.1191 10.2026C65.3379 10.2026 65.5254 10.1245 65.6816 9.96826C65.8379 9.81201 65.916 9.62451 65.916 9.40576C65.916 9.18701 65.8379 9.00146 65.6816 8.84912C65.5254 8.69287 65.3379 8.61475 65.1191 8.61475C64.9004 8.61475 64.7129 8.69287 64.5566 8.84912C64.4004 9.00146 64.3223 9.18701 64.3223 9.40576C64.3223 9.62451 64.4004 9.81201 64.5566 9.96826C64.7129 10.1245 64.9004 10.2026 65.1191 10.2026Z" fill="#727272"/>
</svg>
