<svg width="48" height="48" viewBox="0 0 48 48" fill="none" xmlns="http://www.w3.org/2000/svg">
<path d="M9.69147 35.0541C14.5963 35.0541 18.5724 33.2865 18.5724 31.1062C18.5724 28.9258 14.5963 27.1582 9.69147 27.1582C4.78667 27.1582 0.810547 28.9258 0.810547 31.1062C0.810547 33.2865 4.78667 35.0541 9.69147 35.0541Z" fill="black"/>
<path d="M38.3082 35.0541C43.213 35.0541 47.1891 33.2865 47.1891 31.1062C47.1891 28.9258 43.213 27.1582 38.3082 27.1582C33.4034 27.1582 29.4272 28.9258 29.4272 31.1062C29.4272 33.2865 33.4034 35.0541 38.3082 35.0541Z" fill="#E5E5E5"/>
<path fill-rule="evenodd" clip-rule="evenodd" d="M7.73777 31.107C7.1818 31.107 6.72837 30.6558 6.75716 30.1007C7.25365 20.5389 14.7835 12.9463 23.9996 12.9463C33.2157 12.9463 40.7453 20.5389 41.242 30.1007C41.2708 30.6558 40.8174 31.107 40.2616 31.107H35.3673C34.8114 31.107 34.3646 30.655 34.3238 30.1008C33.8771 24.0305 29.4254 19.263 23.9996 19.263C18.5738 19.263 14.1221 24.0305 13.6754 30.1008C13.6345 30.655 13.1878 31.107 12.6318 31.107H7.73777Z" fill="#FF957E"/>
</svg>
