<svg width="24" height="24" viewBox="0 0 24 24" fill="none" xmlns="http://www.w3.org/2000/svg">
<path d="M2.51273 17.1277C2.51273 17.3789 2.60316 17.6099 2.80416 17.8006L8.7103 23.5962C8.8813 23.7676 9.1423 23.8777 9.36345 23.8777C9.89573 23.8777 10.2574 23.5062 10.2574 22.9837C10.2574 22.7326 10.167 22.5316 10.0063 22.3709L7.11345 19.5483L5.21487 17.921L7.56516 18.0217L20.5933 18.0217C21.1153 18.0217 21.4873 17.6502 21.4873 17.1277C21.4873 16.6053 21.1157 16.2337 20.5933 16.2337L7.56516 16.2337L5.21487 16.334L7.11345 14.7067L10.0063 11.8842C10.0879 11.8046 10.1523 11.7092 10.1955 11.6038C10.2387 11.4984 10.2598 11.3852 10.2574 11.2713C10.2574 10.7493 9.89573 10.3777 9.36345 10.3777C9.1423 10.3777 8.8813 10.4883 8.7103 10.6589L2.80416 16.4544C2.60316 16.6456 2.51273 16.8766 2.51273 17.1273V17.1277ZM2.51273 6.87201C2.51273 7.39444 2.8843 7.76601 3.40673 7.76601L16.4349 7.76601L18.7852 7.66572L16.8866 9.29258L13.9937 12.1156C13.833 12.2759 13.7426 12.4769 13.7426 12.7284C13.7426 13.2504 14.1043 13.6122 14.6366 13.6122C14.8577 13.6122 15.1187 13.5114 15.2897 13.3409L21.1959 7.54487C21.2882 7.45889 21.3618 7.35472 21.412 7.23892C21.4621 7.12313 21.4878 6.9982 21.4873 6.87201C21.4873 6.62087 21.3969 6.38987 21.1959 6.19915L15.2897 0.402725C15.1187 0.232153 14.8577 0.121582 14.6366 0.121582C14.1043 0.121582 13.7426 0.493153 13.7426 1.00572C13.7426 1.26672 13.833 1.46772 13.9937 1.62844L16.8866 4.45101L18.7852 6.07787L16.4349 5.97758L3.40673 5.97758C2.88473 5.97758 2.51273 6.34915 2.51273 6.87158V6.87201Z" fill="#111432"/>
</svg>
