<svg width="86" height="26" viewBox="0 0 86 26" fill="none" xmlns="http://www.w3.org/2000/svg">
<g clip-path="url(#clip0_248_7291)">
<path fill-rule="evenodd" clip-rule="evenodd" d="M14.1633 13.0027L21.3497 20.1122L25.8858 15.6253C26.6969 14.9029 27.9378 14.935 28.7096 15.6984C29.4814 16.4618 29.5139 17.6893 28.7836 18.4916L22.7975 24.4138C21.9934 25.196 20.7038 25.196 19.8997 24.4138L11.2633 15.8689V20.9478C11.2633 22.0687 10.3447 22.9774 9.2115 22.9774C8.0783 22.9774 7.15967 22.0687 7.15967 20.9478V5.05089C7.15967 3.93 8.0783 3.02133 9.2115 3.02133C10.3447 3.02133 11.2633 3.93 11.2633 5.05089V10.1297L19.8986 1.58709C20.7024 0.804305 21.9925 0.804305 22.7964 1.58709L28.7869 7.50819C29.5172 8.3105 29.4847 9.53794 28.713 10.3013C27.9412 11.0648 26.7003 11.0969 25.8891 10.3745L21.3531 5.88763L14.1633 13.0027ZM21.3531 10.9709C20.5222 10.9704 19.7728 11.4652 19.4546 12.2244C19.1363 12.9835 19.3117 13.8576 19.8991 14.4389C20.4865 15.0202 21.3701 15.1943 22.1377 14.8799C22.9054 14.5654 23.406 13.8245 23.406 13.0027C23.4063 12.4638 23.1902 11.9469 22.8052 11.5657C22.4202 11.1844 21.8978 10.9701 21.3531 10.9698V10.9709Z" fill="#24AE8F"/>
</g>
<path d="M37.2617 14.3105L38.4395 12.9746L39.1367 12.3477L42.5234 8.54492H40.9648L37.4727 12.541H37.1973L37.2617 14.3105ZM36.0605 17H37.373V8.54492H36.0605V17ZM41.1582 17H42.7988L39.1484 12.0723L38.2227 12.9629L41.1582 17ZM45.7578 17.123C46.2227 17.123 46.6133 17.0273 46.9297 16.8359C47.2461 16.6445 47.4805 16.3789 47.6328 16.0391H47.7266V17H49.0039V10.6367H47.7266V14.3691C47.7266 14.709 47.668 15.0039 47.5508 15.2539C47.4336 15.5 47.2578 15.6914 47.0234 15.8281C46.793 15.9609 46.5098 16.0273 46.1738 16.0273C45.7051 16.0273 45.3672 15.8965 45.1602 15.6348C44.9531 15.373 44.8496 14.9805 44.8496 14.457V10.6367H43.5781V14.7559C43.5781 15.2559 43.6582 15.6836 43.8184 16.0391C43.9824 16.3906 44.2266 16.6602 44.5508 16.8477C44.8789 17.0312 45.2812 17.123 45.7578 17.123ZM53.5098 17.123C54.0371 17.123 54.4883 17.0352 54.8633 16.8594C55.2422 16.6797 55.5449 16.4336 55.7715 16.1211C55.998 15.8086 56.1484 15.4453 56.2227 15.0312L56.2344 14.9785L55.0156 14.9844L55.0039 15.0137C54.9023 15.3574 54.7266 15.6172 54.4766 15.793C54.2305 15.9688 53.9082 16.0566 53.5098 16.0566C53.1621 16.0566 52.8613 15.9668 52.6074 15.7871C52.3535 15.6035 52.1582 15.3438 52.0215 15.0078C51.8848 14.6719 51.8164 14.2695 51.8164 13.8008V13.7891C51.8164 13.332 51.8828 12.9375 52.0156 12.6055C52.1523 12.2734 52.3477 12.0195 52.6016 11.8438C52.8555 11.6641 53.1582 11.5742 53.5098 11.5742C53.9316 11.5742 54.2695 11.6797 54.5234 11.8906C54.7773 12.0977 54.9395 12.3574 55.0098 12.6699L55.0156 12.6816H56.2402L56.2344 12.6523C56.1758 12.2422 56.0312 11.877 55.8008 11.5566C55.5742 11.2324 55.2676 10.9785 54.8809 10.7949C54.498 10.6074 54.0391 10.5137 53.5039 10.5137C52.8867 10.5137 52.3535 10.6465 51.9043 10.9121C51.459 11.1777 51.1152 11.5547 50.873 12.043C50.6348 12.5312 50.5156 13.1133 50.5156 13.7891V13.8008C50.5156 14.4883 50.6367 15.0801 50.8789 15.5762C51.1211 16.0723 51.4648 16.4551 51.9102 16.7246C52.3594 16.9902 52.8926 17.123 53.5098 17.123ZM60.3711 17.123C60.9961 17.123 61.5312 16.9902 61.9766 16.7246C62.4258 16.459 62.7715 16.0801 63.0137 15.5879C63.2598 15.0918 63.3828 14.5039 63.3828 13.8242V13.8125C63.3828 13.1289 63.2598 12.541 63.0137 12.0488C62.7715 11.5527 62.4258 11.1738 61.9766 10.9121C61.5273 10.6465 60.9922 10.5137 60.3711 10.5137C59.7539 10.5137 59.2188 10.6465 58.7656 10.9121C58.3164 11.1777 57.9688 11.5566 57.7227 12.0488C57.4805 12.541 57.3594 13.1289 57.3594 13.8125V13.8242C57.3594 14.5039 57.4805 15.0918 57.7227 15.5879C57.9648 16.0801 58.3105 16.459 58.7598 16.7246C59.2129 16.9902 59.75 17.123 60.3711 17.123ZM60.3711 16.0566C60.0078 16.0566 59.6992 15.9688 59.4453 15.793C59.1914 15.6133 58.9961 15.3574 58.8594 15.0254C58.7266 14.6934 58.6602 14.293 58.6602 13.8242V13.8125C58.6602 13.3398 58.7266 12.9375 58.8594 12.6055C58.9961 12.2734 59.1914 12.0195 59.4453 11.8438C59.6992 11.6641 60.0078 11.5742 60.3711 11.5742C60.7344 11.5742 61.043 11.6641 61.2969 11.8438C61.5508 12.0195 61.7441 12.2734 61.877 12.6055C62.0098 12.9375 62.0762 13.3398 62.0762 13.8125V13.8242C62.0762 14.293 62.0098 14.6934 61.877 15.0254C61.7441 15.3574 61.5508 15.6133 61.2969 15.793C61.043 15.9688 60.7344 16.0566 60.3711 16.0566ZM64.9121 17H66.1895V10.6367H64.9121V17ZM65.5566 9.5C65.7754 9.5 65.9629 9.42188 66.1191 9.26562C66.2754 9.10938 66.3535 8.92188 66.3535 8.70312C66.3535 8.48438 66.2754 8.29883 66.1191 8.14648C65.9629 7.99023 65.7754 7.91211 65.5566 7.91211C65.3379 7.91211 65.1504 7.99023 64.9941 8.14648C64.8379 8.29883 64.7598 8.48438 64.7598 8.70312C64.7598 8.92188 64.8379 9.10938 64.9941 9.26562C65.1504 9.42188 65.3379 9.5 65.5566 9.5ZM68.0352 17H69.3066V13.2676C69.3066 12.9238 69.3672 12.6289 69.4883 12.3828C69.6133 12.1328 69.7891 11.9414 70.0156 11.8086C70.2422 11.6719 70.5098 11.6035 70.8184 11.6035C71.2871 11.6035 71.6309 11.7344 71.8496 11.9961C72.0723 12.2539 72.1836 12.6484 72.1836 13.1797V17H73.4609V12.8809C73.4609 12.123 73.2715 11.5391 72.8926 11.1289C72.5137 10.7188 71.9668 10.5137 71.252 10.5137C70.7871 10.5137 70.4023 10.6094 70.0977 10.8008C69.793 10.9922 69.5625 11.2578 69.4062 11.5977H69.3066V10.6367H68.0352V17Z" fill="#111432"/>
<defs>
<clipPath id="clip0_248_7291">
<rect width="24" height="24" fill="white" transform="translate(6 1)"/>
</clipPath>
</defs>
</svg>
