<svg width="103" height="30" viewBox="0 0 103 30" fill="none" xmlns="http://www.w3.org/2000/svg">
<g clip-path="url(#clip0_220_623)">
<path d="M14.832 30C23.0235 30 29.664 23.2843 29.664 15C29.664 6.71573 23.0235 0 14.832 0C6.64051 0 0 6.71573 0 15C0 23.2843 6.64051 30 14.832 30Z" fill="#1C68F3"/>
<path d="M80.2588 11.226C82.9774 11.226 86.0655 12.2825 86.2502 15.6632H82.4495C82.3703 14.686 81.4729 14.237 80.2852 14.237C79.1766 14.237 78.6751 14.6596 78.6751 15.1614C78.6751 15.584 78.9918 15.9801 79.9948 16.165L82.3967 16.5612C84.7986 17.0102 86.3822 18.1723 86.3822 20.4437C86.3822 23.4018 83.7164 24.7752 80.3907 24.7752C77.0387 24.7752 74.3201 23.3754 74.0561 19.9683L77.8569 19.9947C78.0417 21.104 78.9655 21.6058 80.3116 21.6058C81.4465 21.6058 82.1327 21.2625 82.1327 20.7078C82.1327 20.2853 81.7368 19.9419 80.8922 19.8098L78.3056 19.3608C76.0885 18.9911 74.5576 17.7497 74.5576 15.5047C74.5576 12.8108 76.8539 11.226 80.2588 11.226ZM64.2374 11.2759C65.6339 11.2759 66.7932 11.6452 67.7417 12.252V11.5661H72.0101V24.362H67.7417V23.6496C66.7932 24.2564 65.6339 24.6258 64.2374 24.6258C60.7858 24.6258 57.8875 21.75 57.8875 17.9508C57.8875 14.1253 60.7858 11.2759 64.2374 11.2759ZM39.2361 6.39417L45.6363 15.9937L52.0101 6.39417H55.3425V24.3767H50.8729V15.359L46.8793 21.5207V21.5471H44.3933V21.5207L40.3733 15.3061L40.3998 24.3767H35.9302V6.39417H39.2361ZM93.0093 5.64697V16.3836L97.476 11.5825H102.577L97.7139 16.8057L103 24.3767H97.8725L94.8066 19.9449L93.0093 21.8706V24.3767H88.7276V5.64697H93.0093ZM65.0806 14.7585C63.3416 14.7585 62.0769 16.1832 62.0769 17.9508C62.0769 19.7185 63.3416 21.1168 65.0806 21.1168C66.0291 21.1168 66.9513 20.853 67.7417 19.9296V15.9721C66.9513 15.0487 66.0291 14.7585 65.0806 14.7585Z" fill="#1C68F3"/>
<path fill-rule="evenodd" clip-rule="evenodd" d="M23.7843 11.3129V16.2943H8.77078L8.12483 16.2943C8.8085 19.3168 11.5218 21.5745 14.7648 21.5745C17.4459 21.5745 19.765 20.0314 20.8744 17.7888L23.7843 17.7887V21.973C23.7843 22.9634 22.9777 23.7662 21.9827 23.7662H7.56969C6.57468 23.7662 5.76807 22.9634 5.76807 21.973V11.3129H23.7843ZM19.1465 17.7887C18.191 19.1792 16.585 20.0916 14.7648 20.0916C12.9447 20.0916 11.3386 19.1792 10.3832 17.7887H19.1465ZM10.9227 12.5085C9.51085 12.5085 8.34283 13.5477 8.14857 14.8995L9.68429 14.8995C9.85315 14.3792 10.3438 14.0029 10.9227 14.0029C11.5017 14.0029 11.9923 14.3792 12.1611 14.8995L13.6969 14.8995C13.5026 13.5477 12.3346 12.5085 10.9227 12.5085ZM18.6297 12.5085C17.2178 12.5085 16.0498 13.5477 15.8555 14.8995L17.3913 14.8995C17.5601 14.3792 18.0507 14.0029 18.6297 14.0029C19.2086 14.0029 19.6993 14.3792 19.8681 14.8995L21.4038 14.8995C21.2096 13.5477 20.0416 12.5085 18.6297 12.5085ZM21.9827 5.8335C22.9777 5.8335 23.7843 6.63637 23.7843 7.62677V9.81855H5.76807V7.62677C5.76807 6.63637 6.57468 5.8335 7.56969 5.8335H21.9827Z" fill="white"/>
</g>
<defs>
<clipPath id="clip0_220_623">
<rect width="103" height="30" fill="white"/>
</clipPath>
</defs>
</svg>
