<svg width="88" height="26" viewBox="0 0 88 26" fill="none" xmlns="http://www.w3.org/2000/svg">
<g clip-path="url(#clip0_298_9090)">
<path fill-rule="evenodd" clip-rule="evenodd" d="M20.0731 7H7.78572C7.70994 7 7.63726 7.03008 7.5837 7.0837C7.53008 7.13726 7.5 7.20994 7.5 7.28577V19.5732C7.5 19.649 7.53008 19.7216 7.5837 19.7752C7.63726 19.8288 7.70994 19.8589 7.78572 19.8589H20.0731C20.149 19.8589 20.2217 19.8288 20.2752 19.7752C20.3288 19.7216 20.3589 19.649 20.3589 19.5732V7.28577C20.3589 7.20994 20.3288 7.13726 20.2752 7.0837C20.2217 7.03008 20.149 7 20.0731 7ZM16.0726 15.2869C16.0726 15.3626 16.0425 15.4353 15.9889 15.4889C15.9353 15.5425 15.8627 15.5726 15.7869 15.5726H12.072C11.9963 15.5726 11.9236 15.5425 11.87 15.4889C11.8164 15.4353 11.7863 15.3626 11.7863 15.2869V11.572C11.7863 11.4963 11.8164 11.4236 11.87 11.37C11.9236 11.3164 11.9963 11.2863 12.072 11.2863H15.7869C15.8627 11.2863 15.9353 11.3164 15.9889 11.37C16.0425 11.4236 16.0726 11.4963 16.0726 11.572V15.2869Z" fill="#111432"/>
<path d="M45.7982 11.2868H42.0834C41.9256 11.2868 41.7976 11.4147 41.7976 11.5725V15.2874C41.7976 15.4452 41.9256 15.5731 42.0834 15.5731H45.7982C45.956 15.5731 46.0839 15.4452 46.0839 15.2874V11.5725C46.0839 11.4147 45.956 11.2868 45.7982 11.2868Z" fill="#111432"/>
<path d="M37.7953 7.00037H41.5101C41.6679 7.00037 41.7958 7.12827 41.7958 7.28614V11.0009C41.7958 11.1587 41.6679 11.2867 41.5101 11.2867H37.7953C37.6375 11.2867 37.5095 11.1587 37.5095 11.0009V7.28614C37.5095 7.12827 37.6375 7.00037 37.7953 7.00037Z" fill="#111432"/>
<path d="M50.0828 7.00037H46.3679C46.2101 7.00037 46.0822 7.12827 46.0822 7.28614V11.0009C46.0822 11.1587 46.2101 11.2867 46.3679 11.2867H50.0828C50.2406 11.2867 50.3685 11.1587 50.3685 11.0009V7.28614C50.3685 7.12827 50.2406 7.00037 50.0828 7.00037Z" fill="#111432"/>
<path d="M37.7953 15.5729H41.5101C41.6679 15.5729 41.7958 15.7008 41.7958 15.8586V19.5734C41.7958 19.7312 41.6679 19.8592 41.5101 19.8592H37.7953C37.6375 19.8592 37.5095 19.7312 37.5095 19.5734V15.8586C37.5095 15.7008 37.6375 15.5729 37.7953 15.5729Z" fill="#111432"/>
<path d="M50.0828 15.5729H46.3679C46.2101 15.5729 46.0822 15.7008 46.0822 15.8586V19.5734C46.0822 19.7312 46.2101 19.8592 46.3679 19.8592H50.0828C50.2406 19.8592 50.3685 19.7312 50.3685 19.5734V15.8586C50.3685 15.7008 50.2406 15.5729 50.0828 15.5729Z" fill="#111432"/>
<path d="M31.3605 7.00037H35.0753C35.2331 7.00037 35.361 7.12827 35.361 7.28614V11.0009C35.361 11.1587 35.2331 11.2867 35.0753 11.2867H31.3605C31.2027 11.2867 31.0747 11.1587 31.0747 11.0009V7.28614C31.0747 7.12827 31.2027 7.00037 31.3605 7.00037Z" fill="#111432"/>
<path d="M35.0753 15.5729H31.3605C31.2027 15.5729 31.0747 15.7008 31.0747 15.8586V19.5734C31.0747 19.7312 31.2027 19.8592 31.3605 19.8592H35.0753C35.2331 19.8592 35.361 19.7312 35.361 19.5734V15.8586C35.361 15.7008 35.2331 15.5729 35.0753 15.5729Z" fill="#111432"/>
<path d="M30.991 11.3668C31.0446 11.4204 31.0747 11.493 31.0747 11.5688V15.2837C31.0747 15.3594 31.0446 15.4321 30.991 15.4857C30.9374 15.5393 30.8647 15.5694 30.7889 15.5694H26.7884V19.5668C26.7884 19.6425 26.7583 19.7152 26.7047 19.7688C26.6511 19.8224 26.5784 19.8525 26.5026 19.8525H22.7878C22.712 19.8525 22.6393 19.8224 22.5858 19.7688C22.5322 19.7152 22.5021 19.6425 22.5021 19.5668V7.28577C22.5021 7.20994 22.5322 7.13726 22.5858 7.0837C22.6393 7.03008 22.712 7 22.7878 7H26.5026C26.5784 7 26.6511 7.03008 26.7047 7.0837C26.7583 7.13726 26.7884 7.20994 26.7884 7.28577V11.2831H30.7889C30.8647 11.2831 30.9374 11.3132 30.991 11.3668Z" fill="#111432"/>
</g>
<path d="M59.1641 17.2051C59.9766 17.2051 60.6777 17.0234 61.2676 16.6602C61.8613 16.2969 62.3164 15.7852 62.6328 15.125C62.9492 14.4609 63.1074 13.6777 63.1074 12.7754V12.7637C63.1074 11.8574 62.9473 11.0742 62.627 10.4141C62.3105 9.75 61.8574 9.23828 61.2676 8.87891C60.6777 8.51953 59.9766 8.33984 59.1641 8.33984C58.3555 8.33984 57.6543 8.51953 57.0605 8.87891C56.4707 9.23828 56.0156 9.74805 55.6953 10.4082C55.375 11.0684 55.2148 11.8535 55.2148 12.7637V12.7754C55.2148 13.6777 55.373 14.4609 55.6895 15.125C56.0059 15.7891 56.459 16.3027 57.0488 16.666C57.6387 17.0254 58.3438 17.2051 59.1641 17.2051ZM59.1641 16.0391C58.6211 16.0391 58.1543 15.9043 57.7637 15.6348C57.377 15.3652 57.0781 14.9863 56.8672 14.498C56.6602 14.0059 56.5566 13.4316 56.5566 12.7754V12.7637C56.5566 12.0996 56.6641 11.5234 56.8789 11.0352C57.0938 10.5469 57.3945 10.1699 57.7812 9.9043C58.1719 9.63867 58.6328 9.50586 59.1641 9.50586C59.6953 9.50586 60.1562 9.63867 60.5469 9.9043C60.9375 10.1699 61.2383 10.5469 61.4492 11.0352C61.6602 11.5234 61.7656 12.0996 61.7656 12.7637V12.7754C61.7656 13.4316 61.6602 14.0059 61.4492 14.498C61.2383 14.9863 60.9375 15.3652 60.5469 15.6348C60.1562 15.9043 59.6953 16.0391 59.1641 16.0391ZM66.0898 14.3105L67.2676 12.9746L67.9648 12.3477L71.3516 8.54492H69.793L66.3008 12.541H66.0254L66.0898 14.3105ZM64.8887 17H66.2012V8.54492H64.8887V17ZM69.9863 17H71.627L67.9766 12.0723L67.0508 12.9629L69.9863 17ZM72.4766 17H73.9355L76.3672 13.2969L75.4941 13.7773H76.1035L78.207 17H79.748L76.6191 12.3242L76.9355 13.3672V12.7695L79.8008 8.54492H78.3125L75.9102 12.3066L76.7715 11.8203H76.168L74.0762 8.54492H72.5059L75.2891 12.7285V13.3203L75.5996 12.2773L72.4766 17Z" fill="#111432"/>
<defs>
<clipPath id="clip0_298_9090">
<rect width="42" height="26" fill="white" transform="translate(7.5)"/>
</clipPath>
</defs>
</svg>
