<svg width="24" height="24" viewBox="0 0 24 24" fill="none" xmlns="http://www.w3.org/2000/svg">
<path d="M23.1902 11.4597C23.1902 9.90637 21.9697 8.68591 20.4164 8.68591C19.7507 8.68591 19.085 8.90781 18.6412 9.35161C16.9769 8.35306 14.9798 7.68735 12.6498 7.5764L13.8703 3.13837L17.6426 4.24788C17.6426 5.46834 18.6412 6.46689 19.8616 6.46689C21.0821 6.46689 22.0806 5.46834 22.0806 4.24788C22.0806 3.02742 21.0821 2.02886 19.8616 2.02886C19.085 2.02886 18.3083 2.47266 17.9755 3.13837L13.5374 2.02886C13.2046 1.91791 12.9827 2.13981 12.8717 2.47266L11.5403 7.5764C9.32131 7.68735 7.21324 8.35306 5.54898 9.35161C5.10518 8.90781 4.43947 8.68591 3.77377 8.68591C2.22046 8.68591 1 9.90637 1 11.4597C1 12.4582 1.4438 13.2349 2.22046 13.7896L2.10951 14.7882C2.10951 18.7824 6.54754 22 12.0951 22C17.6426 22 22.0806 18.7824 22.0806 14.7882L21.9697 13.7896C22.7464 13.2349 23.1902 12.4582 23.1902 11.4597ZM8.76655 11.7925C9.54321 11.7925 10.098 12.4582 10.098 13.1239C10.098 13.7896 9.54321 14.4553 8.76655 14.4553C7.9899 14.4553 7.43514 13.9006 7.43514 13.1239C7.43514 12.3473 7.9899 11.7925 8.76655 11.7925ZM16.3112 17.7839C14.3141 19.0043 9.87606 19.0043 7.87895 17.7839C7.65705 17.562 7.5461 17.2291 7.768 17.0072C7.9899 16.7853 8.32275 16.6744 8.54465 16.8963C9.87606 17.8948 14.3141 17.8948 15.6455 16.8963C15.8674 16.6744 16.2003 16.7853 16.4222 17.0072C16.6441 17.2291 16.5331 17.562 16.3112 17.7839ZM15.4236 14.4553C14.6469 14.4553 14.0922 13.7896 14.0922 13.1239C14.0922 12.3473 14.7579 11.7925 15.4236 11.7925C16.2003 11.7925 16.755 12.4582 16.755 13.1239C16.755 13.9006 16.2003 14.4553 15.4236 14.4553Z" fill="#111432"/>
</svg>
