<svg width="24" height="24" viewBox="0 0 24 24" fill="none" xmlns="http://www.w3.org/2000/svg">
<path d="M21.6137 7.16176C21.4976 6.74574 21.2761 6.36671 20.9707 6.0613C20.6653 5.7559 20.2863 5.53444 19.8703 5.41833C18.3089 5.00001 12.0249 5.00001 12.0249 5.00001C12.0249 5.00001 5.75672 4.99166 4.17946 5.41833C3.76344 5.53444 3.38441 5.7559 3.07901 6.0613C2.7736 6.36671 2.55214 6.74574 2.43604 7.16176C2.14006 8.76032 1.99414 10.383 2.00018 12.0088C1.99528 13.6284 2.14119 15.2449 2.43604 16.8374C2.55214 17.2534 2.7736 17.6325 3.07901 17.9379C3.38441 18.2433 3.76344 18.4647 4.17946 18.5808C5.73919 19 12.0249 19 12.0249 19C12.0249 19 18.2922 19 19.8703 18.5808C20.2863 18.4647 20.6653 18.2433 20.9707 17.9379C21.2761 17.6325 21.4976 17.2534 21.6137 16.8374C21.9024 15.2443 22.0421 13.6278 22.0312 12.0088C22.0433 10.3836 21.9035 8.7609 21.6137 7.16176ZM10.0193 15.0072V9.0012L15.2495 12.0088L10.0193 15.0072Z" fill="#111432"/>
</svg>
