<svg width="48" height="48" viewBox="0 0 48 48" fill="none" xmlns="http://www.w3.org/2000/svg">
<path d="M31.5093 18.943C31.2279 18.7808 30.9089 18.6955 30.5842 18.6955C30.2595 18.6955 29.9405 18.7808 29.6591 18.943L25.4147 21.4714L22.5306 23.1205L18.2862 25.649C18.0048 25.8112 17.6858 25.8965 17.3611 25.8965C17.0364 25.8965 16.7174 25.8112 16.4361 25.649L13.0623 23.6702C12.7854 23.5049 12.5552 23.2718 12.3934 22.9929C12.2315 22.714 12.1434 22.3985 12.1372 22.0761V18.1734C12.1318 17.8487 12.2151 17.5287 12.3781 17.2478C12.5411 16.9669 12.7777 16.7358 13.0623 16.5793L16.3816 14.6555C16.663 14.4933 16.982 14.408 17.3067 14.408C17.6314 14.408 17.9505 14.4933 18.2318 14.6555L21.5512 16.5793C21.828 16.7447 22.0582 16.9777 22.22 17.2566C22.3819 17.5355 22.47 17.851 22.4762 18.1734V20.7019L25.3602 18.9979V16.4694C25.3656 16.1447 25.2823 15.8246 25.1193 15.5437C24.9563 15.2628 24.7198 15.0317 24.4352 14.8753L18.2862 11.2475C18.0048 11.0853 17.6858 11 17.3611 11C17.0364 11 16.7174 11.0853 16.4361 11.2475L10.1782 14.8754C9.89364 15.0318 9.65711 15.2629 9.4941 15.5438C9.3311 15.8246 9.2478 16.1447 9.25317 16.4694V23.7801C9.2478 24.1048 9.33109 24.4248 9.4941 24.7057C9.65711 24.9866 9.89365 25.2177 10.1782 25.3741L16.4361 29.002C16.7174 29.1642 17.0364 29.2495 17.3611 29.2495C17.6858 29.2495 18.0049 29.1642 18.2862 29.002L22.5306 26.5284L25.4147 24.8245L29.6591 22.3509C29.9405 22.1888 30.2595 22.1035 30.5842 22.1035C30.9089 22.1035 31.2279 22.1888 31.5093 22.3509L34.8286 24.2748C35.1055 24.4401 35.3357 24.6732 35.4975 24.9521C35.6593 25.231 35.7475 25.5465 35.7537 25.8689V29.7716C35.7591 30.0963 35.6758 30.4163 35.5128 30.6972C35.3498 30.9781 35.1132 31.2092 34.8286 31.3656L31.5093 33.3445C31.2279 33.5067 30.9089 33.592 30.5842 33.592C30.2595 33.592 29.9405 33.5067 29.6591 33.3445L26.3398 31.4206C26.0629 31.2553 25.8327 31.0222 25.6709 30.7433C25.509 30.4644 25.4208 30.1489 25.4147 29.8265V27.298L22.5306 29.002V31.5306C22.5253 31.8553 22.6086 32.1753 22.7715 32.4562C22.9345 32.7371 23.1711 32.9682 23.4557 33.1246L29.7135 36.7525C29.9948 36.9147 30.3139 37 30.6386 37C30.9633 37 31.2823 36.9147 31.5636 36.7525L37.8215 33.1246C38.0983 32.9593 38.3285 32.7262 38.4904 32.4473C38.6522 32.1685 38.7404 31.853 38.7466 31.5306V24.2198C38.7519 23.8951 38.6686 23.5751 38.5056 23.2942C38.3426 23.0133 38.1061 22.7822 37.8215 22.6258L31.5093 18.943Z" fill="#7B3FE4"/>
</svg>
